<?xml version="1.0" standalone="no"?>
<!DOCTYPE svg PUBLIC "-//W3C//DTD SVG 20010904//EN"
 "http://www.w3.org/TR/2001/REC-SVG-20010904/DTD/svg10.dtd">
<svg version="1.0" xmlns="http://www.w3.org/2000/svg"
 width="840.000000pt" height="840.000000pt" viewBox="0 0 840.000000 840.000000"
 preserveAspectRatio="xMidYMid meet">
<metadata>
Created by potrace 1.14, written by Peter Selinger 2001-2017
</metadata>
<g transform="translate(0.000000,840.000000) scale(0.100000,-0.100000)"
fill="#000000" stroke="none">
<path d="M878 7083 c-10 -2 -18 -6 -18 -7 0 -2 55 -57 579 -577 174 -173 249
-254 241 -259 -9 -5 -143 121 -417 393 -222 220 -408 404 -414 407 -10 7 -72
-49 -89 -81 -16 -28 -12 -66 8 -74 14 -5 15 -4 5 6 -7 7 -13 20 -12 29 0 9 4
6 10 -8 5 -13 13 -21 18 -17 5 3 13 0 17 -6 4 -7 3 -9 -3 -6 -6 4 -13 1 -16
-7 -8 -19 3 -28 19 -15 9 7 20 2 40 -18 16 -15 27 -34 26 -40 -2 -7 2 -14 8
-14 5 -1 15 -2 20 -3 6 0 11 -5 11 -11 1 -5 10 -16 20 -23 10 -7 16 -18 13
-25 -2 -7 7 -26 21 -43 14 -16 25 -33 25 -37 0 -5 5 -5 10 -2 6 3 10 11 10 16
0 6 -4 8 -8 5 -5 -3 -19 8 -31 24 -12 17 -18 30 -13 30 5 0 15 -11 22 -25 7
-13 17 -22 21 -19 10 6 40 -37 33 -48 -7 -11 83 -118 99 -118 7 0 4 7 -6 14
-10 8 -14 16 -10 18 4 3 2 3 -5 1 -8 -1 -10 2 -6 9 5 7 3 8 -6 3 -9 -6 -11 -4
-5 5 6 9 4 11 -5 5 -8 -5 -11 -4 -6 3 3 5 0 13 -6 15 -8 3 -8 6 -2 6 15 1 69
-46 69 -61 1 -7 6 -12 13 -10 7 1 11 -2 10 -7 -2 -5 6 -16 16 -24 15 -11 16
-16 6 -22 -9 -6 -11 -4 -5 6 5 8 5 11 0 7 -4 -4 -15 2 -25 14 -12 15 -19 18
-24 9 -4 -6 -4 -10 1 -9 4 2 24 -15 44 -36 27 -29 38 -36 44 -26 6 9 4 11 -5
5 -9 -6 -11 -4 -5 5 6 9 4 11 -5 5 -9 -5 -11 -4 -6 3 5 9 12 9 25 0 16 -10 17
-14 5 -25 -8 -8 -14 -17 -14 -20 0 -4 3 -3 7 0 3 4 12 -2 20 -13 14 -20 50
-29 38 -10 -4 6 -10 8 -15 5 -5 -3 -14 5 -20 17 -10 21 -10 21 3 6 8 -10 16
-16 19 -13 2 3 15 -6 28 -20 13 -14 20 -25 15 -25 -4 0 7 -10 25 -22 18 -13
35 -32 36 -43 2 -15 -5 -11 -32 18 -19 20 -40 37 -45 37 -6 0 8 -18 31 -40 32
-31 47 -39 64 -34 20 6 20 6 2 -9 -19 -14 -19 -15 2 -26 13 -7 19 -17 16 -23
-4 -6 -3 -9 2 -6 11 5 54 -38 46 -46 -3 -3 -1 -6 4 -6 5 0 20 -9 33 -19 l24
-18 -61 -64 c-202 -214 -370 -490 -461 -759 -23 -69 -45 -132 -48 -140 -4 -8
-7 -17 -8 -20 -1 -3 -12 -39 -25 -80 -28 -89 -23 -72 -50 -190 -12 -52 -23
-108 -25 -125 -2 -16 -6 -43 -9 -60 -23 -133 -24 -508 -2 -735 18 -179 73
-399 96 -385 7 4 15 -15 25 -60 20 -83 187 -437 275 -580 38 -64 45 -95 20
-95 -5 0 -10 -7 -10 -16 0 -14 1 -14 16 0 23 23 30 19 9 -4 -19 -21 -19 -21
-52 16 -18 21 -33 41 -33 46 0 4 -4 8 -10 8 -11 0 -3 -27 15 -50 6 -8 16 -28
23 -43 11 -27 11 -27 -11 -16 -19 11 -20 10 -9 -3 10 -13 9 -15 -10 -14 -14 1
-23 -5 -23 -14 -1 -8 -5 -14 -10 -13 -6 0 -16 -5 -23 -13 -7 -8 -8 -14 -2 -14
5 0 10 -5 10 -10 0 -6 -6 -10 -12 -9 -31 4 -41 -1 -29 -14 8 -11 2 -23 -31
-53 -24 -21 -47 -38 -52 -36 -4 2 -5 -5 -2 -15 4 -9 4 -14 0 -11 -3 4 -17 -4
-31 -18 -37 -37 -39 -28 -2 14 18 20 35 37 38 36 4 -1 14 7 24 17 10 11 12 19
5 19 -6 0 -32 -21 -57 -47 -25 -27 -49 -47 -54 -45 -4 1 -2 -8 4 -20 11 -20
10 -21 -2 -11 -12 10 -20 7 -42 -13 -15 -14 -27 -28 -27 -31 0 -7 40 26 52 42
4 6 8 2 8 -7 0 -10 -7 -18 -16 -18 -8 0 -12 -5 -9 -10 4 -6 1 -9 -7 -8 -7 2
-12 -3 -10 -10 2 -10 -2 -10 -20 -1 -20 10 -21 10 -11 -2 9 -11 7 -19 -8 -38
-11 -13 -22 -22 -24 -19 -3 2 4 14 15 26 17 18 18 22 5 22 -8 0 -15 -7 -15
-16 0 -9 -5 -12 -12 -8 -7 4 -8 3 -4 -4 4 -7 2 -12 -4 -12 -6 0 -30 -20 -55
-44 -24 -24 -47 -41 -51 -38 -4 4 -4 1 0 -5 9 -16 9 -16 34 6 12 10 18 22 14
26 -4 5 0 5 8 0 8 -5 12 -5 8 0 -7 7 33 44 40 37 5 -5 2 -17 -5 -17 -5 0 -26
-19 -49 -43 -24 -25 -44 -38 -50 -32 -14 14 -79 -51 -79 -80 0 -13 -7 -25 -15
-27 -9 -3 -11 -1 -5 4 14 11 17 33 5 33 -6 0 -10 -7 -10 -16 0 -8 -5 -12 -11
-8 -8 5 -8 1 0 -14 8 -15 6 -23 -8 -36 -14 -13 -21 -14 -27 -5 -5 8 -3 10 6 4
9 -6 11 -4 5 5 -6 9 -4 11 5 5 9 -6 11 -4 5 5 -6 9 -4 11 5 5 9 -6 11 -4 5 4
-5 9 -13 7 -31 -10 -18 -17 -21 -26 -13 -41 6 -10 6 -17 1 -16 -6 2 -23 -14
-40 -35 -23 -29 -31 -34 -36 -22 -4 11 -2 14 6 9 7 -5 8 -3 3 6 -6 9 -4 11 5
5 9 -6 11 -4 5 5 -5 7 -4 11 1 8 5 -3 17 5 27 17 13 18 14 25 5 31 -7 4 -10 4
-6 -1 4 -4 -8 -21 -27 -38 -19 -16 -32 -33 -29 -38 3 -5 -2 -9 -10 -9 -9 0
-16 -7 -16 -16 0 -8 -4 -13 -9 -10 -5 3 -14 -1 -20 -8 -9 -11 -9 -16 0 -22 8
-5 9 -3 4 6 -6 9 -4 11 5 5 9 -6 11 -4 5 5 -5 8 -4 11 3 6 6 -3 15 2 21 11 5
10 12 15 15 12 3 -3 -15 -27 -41 -54 -27 -27 -47 -52 -46 -57 2 -4 -1 -7 -6
-5 -5 1 -17 -7 -27 -19 -11 -12 -33 -37 -50 -57 -18 -19 -41 -40 -53 -47 -12
-6 -18 -16 -15 -22 4 -7 3 -8 -4 -4 -7 4 -12 3 -12 -3 0 -15 -46 -62 -53 -54
-9 9 -9 23 0 22 29 -5 53 24 31 37 -6 4 -9 3 -6 -2 5 -8 -19 -39 -30 -39 -2 0
-26 -21 -52 -47 -26 -27 -43 -48 -39 -48 5 0 9 -6 9 -13 0 -7 35 -47 78 -89
l78 -76 54 45 c166 137 353 316 827 791 203 204 357 351 363 347 10 -6 -209
-234 -548 -568 -349 -344 -478 -466 -642 -606 -27 -24 -32 -33 -23 -42 10 -10
22 -5 57 23 113 88 378 341 812 776 205 204 374 372 377 372 3 0 52 -46 109
-103 188 -187 361 -317 571 -428 43 -23 74 -45 68 -49 -7 -4 0 -14 16 -26 41
-30 198 -102 238 -110 19 -3 38 -10 41 -15 8 -14 24 0 18 15 -4 10 24 4 90
-19 53 -18 96 -32 96 -29 0 2 11 -1 24 -6 40 -15 194 -45 281 -55 134 -15 211
-18 470 -19 334 0 478 13 436 38 -6 4 -11 3 -11 -3 0 -7 -79 -9 -232 -6 -309
5 -365 21 -78 22 198 1 317 6 380 17 27 5 111 17 150 21 14 2 25 4 25 5 0 1
11 3 25 5 20 3 128 31 225 59 91 25 247 83 255 94 3 4 24 16 48 26 23 11 40
21 38 23 -2 3 -18 -3 -35 -11 -17 -9 -32 -16 -33 -16 -3 1 -24 -6 -90 -31 -55
-22 -98 -31 -98 -21 1 4 32 22 71 41 39 18 68 36 65 39 -3 2 -11 0 -18 -5 -25
-20 -321 -119 -341 -115 -4 1 -16 -2 -25 -7 -17 -9 -60 -17 -136 -27 -22 -3
-44 -8 -50 -11 -5 -4 -7 0 -4 9 5 13 -1 14 -40 6 -26 -4 -65 -10 -87 -13 -59
-6 -137 -16 -165 -21 -107 -20 -289 -25 -356 -10 -12 2 -39 7 -60 10 -22 4
-57 12 -79 18 -22 6 -44 13 -50 14 -94 25 -219 66 -250 82 -43 21 -67 32 -185
82 -119 51 -222 105 -307 162 -43 29 -80 55 -83 58 -3 3 -25 21 -50 41 -25 20
-55 45 -66 55 -12 11 -41 35 -64 54 -83 68 -191 180 -184 192 4 6 3 8 -4 4
-13 -8 -54 33 -46 46 3 5 2 7 -3 6 -10 -3 -83 75 -83 88 0 5 9 -2 20 -16 11
-14 20 -20 20 -14 0 6 -11 24 -25 40 -19 22 -24 24 -19 9 4 -14 -1 -12 -20 10
-31 37 -34 55 -4 29 17 -15 16 -12 -5 17 -15 20 -24 39 -19 44 4 5 1 5 -6 1
-10 -6 -10 -11 -1 -22 6 -8 9 -17 6 -20 -3 -3 -17 12 -31 33 l-26 38 120 120
c408 410 653 655 919 920 165 165 300 304 298 309 -2 6 -8 11 -14 13 -6 2
-311 -296 -678 -662 -367 -366 -669 -665 -671 -665 -2 0 -4 5 -4 11 0 16 75
92 743 759 317 317 577 580 577 584 0 9 -128 136 -137 136 -11 0 -118 -105
-115 -113 1 -5 -2 -6 -7 -2 -6 3 -15 -4 -21 -15 -6 -11 -21 -20 -33 -20 -23 0
-137 -105 -137 -125 0 -6 7 -1 15 9 13 18 15 18 15 3 0 -21 -32 -36 -38 -19
-2 8 -11 3 -22 -10 -11 -14 -15 -27 -9 -34 5 -7 -6 -24 -30 -48 -28 -27 -41
-34 -46 -25 -6 8 -4 10 5 4 9 -6 11 -4 5 5 -6 9 -4 11 5 5 9 -6 11 -4 5 5 -6
9 -4 11 5 5 9 -6 11 -4 5 5 -6 9 -4 11 5 5 9 -6 11 -4 5 5 -6 9 -4 11 5 5 9
-6 11 -4 5 5 -5 8 -4 11 3 6 6 -3 13 -2 17 4 3 5 0 10 -8 10 -8 0 -31 -18 -50
-39 -19 -22 -38 -36 -42 -33 -3 4 -3 -2 1 -12 5 -14 4 -17 -4 -12 -7 4 -15 1
-18 -8 -3 -9 -11 -13 -17 -9 -6 3 -7 1 -3 -5 4 -6 13 -9 21 -6 8 4 12 10 9 15
-3 5 2 6 12 2 14 -5 14 -7 -5 -18 -12 -6 -18 -15 -14 -19 4 -5 -2 -4 -13 2
-18 9 -25 7 -43 -12 -17 -18 -19 -26 -10 -31 8 -6 10 -4 4 5 -6 9 -4 11 5 5 9
-6 11 -4 5 5 -6 9 -4 11 5 5 9 -6 11 -4 5 5 -6 9 -4 11 4 6 9 -6 8 -13 -5 -27
-13 -15 -20 -16 -38 -7 -19 10 -20 10 -7 -6 12 -14 12 -16 -1 -11 -15 6 -66
-41 -55 -52 4 -3 7 -1 7 6 0 7 5 9 12 5 7 -5 8 -3 3 6 -6 9 -4 11 5 5 8 -5 11
-4 6 3 -3 6 -2 13 3 16 5 4 8 -1 7 -10 -4 -24 -37 -46 -51 -34 -19 16 -36 -9
-23 -34 6 -12 7 -17 2 -13 -4 4 -14 -3 -22 -15 -7 -13 -11 -16 -9 -7 6 19 -20
21 -27 2 -3 -8 -9 -12 -14 -9 -4 2 -8 -4 -8 -15 0 -19 1 -18 19 3 l19 23 -14
-25 c-8 -14 -38 -44 -67 -67 -28 -24 -51 -46 -50 -49 0 -4 -11 -14 -25 -24
-15 -9 -23 -20 -19 -25 5 -4 3 -5 -4 -1 -7 4 -10 13 -7 21 4 8 11 12 17 8 6
-4 7 -1 2 7 -5 9 -4 11 3 6 7 -4 12 -2 12 4 0 6 5 8 12 4 7 -4 8 -3 4 5 -4 6
0 14 8 17 9 3 14 10 11 15 -3 4 -42 -27 -85 -70 -44 -42 -82 -75 -85 -73 -2 2
-2 -8 1 -24 5 -26 4 -27 -8 -12 -12 16 -15 16 -35 -7 -12 -14 -17 -27 -13 -30
5 -3 16 7 25 22 11 20 15 23 13 8 -2 -10 -25 -39 -53 -64 -27 -24 -58 -54 -68
-65 -10 -12 -16 -16 -13 -10 3 7 -1 14 -8 17 -10 4 -14 0 -11 -11 4 -22 -12
-43 -47 -66 -15 -10 -25 -23 -21 -29 4 -6 1 -7 -7 -2 -10 6 -6 14 16 33 16 14
28 30 26 35 -1 4 3 5 9 1 8 -5 9 -3 4 6 -6 9 -4 11 5 5 9 -5 11 -4 6 4 -6 9
-11 9 -22 0 -7 -6 -11 -15 -8 -20 3 -5 0 -9 -5 -9 -20 0 -53 -42 -48 -60 3
-13 0 -17 -9 -13 -8 3 -11 10 -7 17 3 6 -3 2 -15 -8 -22 -19 -23 -19 -37 0 -8
10 -18 30 -22 44 -3 14 -15 45 -26 68 -19 45 -77 206 -82 232 -2 8 -13 49 -24
90 -23 84 -57 282 -65 379 -3 35 -8 66 -11 69 -11 12 10 -197 31 -303 3 -16 7
-39 9 -50 10 -75 44 -185 128 -422 7 -18 15 -33 19 -33 5 0 8 -8 8 -17 0 -10
9 -33 21 -52 12 -21 17 -37 11 -43 -10 -10 -48 65 -88 172 -13 36 -28 74 -33
85 -5 11 -15 38 -21 60 -6 22 -15 49 -20 60 -8 19 -39 139 -46 180 -2 11 -8
41 -13 66 -6 26 -12 64 -15 85 -3 22 -8 56 -11 76 -3 20 -7 64 -9 97 -1 34 -5
64 -9 68 -13 12 6 -206 28 -312 3 -16 10 -55 16 -85 20 -106 86 -327 100 -335
5 -4 7 -10 4 -15 -3 -5 -1 -11 5 -15 5 -3 10 -13 10 -21 0 -8 18 -50 39 -93
22 -44 37 -82 33 -85 -3 -3 -1 -6 5 -6 18 0 10 -26 -9 -27 -15 -2 -28 17 -58
80 -81 175 -117 276 -124 347 -6 67 -22 175 -26 175 -1 0 -3 9 -5 20 -3 26
-12 68 -31 158 -8 39 -17 87 -20 106 -3 18 -7 42 -9 52 -2 10 -7 49 -10 86 -4
37 -8 83 -10 100 -2 18 1 35 6 39 6 4 6 11 -2 20 -9 11 -8 14 2 14 11 0 11 2
-1 10 -8 5 -10 10 -5 10 6 0 10 19 9 43 0 23 6 57 13 76 7 19 11 36 9 39 -3 2
0 16 6 31 5 14 12 35 14 46 12 65 27 116 35 121 5 3 7 10 3 15 -9 15 17 110
28 103 7 -4 7 0 0 12 -11 23 -5 47 11 37 8 -5 8 -2 0 8 -10 12 -10 18 -1 27 7
7 8 12 3 12 -5 0 0 7 11 16 10 8 13 13 6 9 -9 -5 -11 2 -7 27 7 40 56 186 84
251 11 26 20 48 19 50 -1 1 10 20 23 42 14 22 33 58 44 80 20 43 62 112 82
133 7 7 13 18 13 23 0 6 7 17 15 26 31 31 94 131 87 138 -4 5 -1 5 6 1 6 -4
12 -3 12 2 0 6 7 12 15 16 8 3 -15 -37 -50 -89 -36 -52 -65 -99 -65 -105 0 -5
-5 -10 -11 -10 -5 0 -8 -4 -4 -9 3 -5 1 -12 -4 -15 -10 -7 -53 -76 -46 -76 2
0 21 26 42 58 85 128 146 207 162 208 31 2 33 4 20 22 -7 9 3 2 24 -17 31 -29
40 -51 21 -51 -3 0 -2 5 2 12 5 7 3 8 -6 3 -9 -6 -11 -4 -5 5 6 9 4 11 -5 5
-8 -5 -11 -4 -7 2 3 5 -1 10 -9 10 -11 0 -9 -6 7 -23 18 -19 26 -21 42 -13 12
7 17 7 13 1 -3 -5 1 -13 10 -16 8 -3 12 -11 9 -17 -4 -6 -1 -9 7 -7 7 2 15 -1
17 -7 2 -5 8 -19 13 -30 7 -13 2 -11 -15 8 -28 29 -37 33 -37 17 0 -5 6 -10
14 -10 8 0 19 -13 25 -30 5 -16 14 -30 19 -30 5 0 14 -10 20 -22 10 -19 11
-20 9 -4 -1 10 4 20 11 22 7 1 8 0 2 -3 -6 -3 -2 -20 12 -44 16 -28 27 -38 39
-34 22 7 54 -24 40 -38 -6 -6 -5 -14 4 -24 8 -7 16 -12 19 -11 2 2 23 -21 46
-50 23 -28 46 -50 51 -46 5 3 7 10 3 15 -3 5 -10 6 -16 3 -7 -5 -8 -2 -3 6 6
9 4 11 -6 5 -11 -6 -11 -5 -2 5 9 9 15 8 32 -9 11 -11 16 -23 11 -26 -16 -10
-11 -21 15 -35 13 -7 22 -17 19 -21 -2 -4 0 -10 5 -13 5 -4 13 -1 17 5 4 7 3
9 -3 6 -5 -3 -10 0 -10 8 0 8 3 15 6 15 10 0 33 -41 27 -48 -3 -3 -6 1 -6 8 0
7 -3 10 -6 7 -8 -8 14 -37 28 -37 5 0 6 5 3 10 -3 6 -1 10 4 10 15 0 14 -13
-1 -29 -11 -11 -9 -11 11 -1 15 8 21 8 17 1 -4 -6 -2 -11 3 -11 6 0 11 -5 11
-11 0 -8 -5 -8 -15 1 -26 22 -16 4 19 -34 23 -24 37 -32 42 -25 5 8 3 9 -7 4
-8 -5 -11 -5 -7 0 4 4 -2 15 -14 25 -16 13 -18 19 -8 25 8 5 11 4 7 -2 -4 -6
5 -19 21 -30 25 -16 46 -53 22 -38 -5 3 -10 1 -10 -4 0 -6 7 -11 15 -11 8 0
15 5 15 12 0 6 3 8 6 5 4 -4 1 -14 -7 -23 -13 -16 -12 -16 11 -4 22 12 24 12
12 -2 -10 -13 -10 -19 4 -32 9 -10 24 -14 35 -11 12 4 19 2 19 -8 0 -7 11 -20
25 -27 13 -7 27 -22 31 -32 3 -11 8 -17 11 -15 8 9 55 -42 50 -55 -3 -8 -6 -5
-6 6 -1 11 -4 17 -7 13 -4 -3 -22 11 -41 31 -20 20 -40 36 -45 34 -5 -1 -8 1
-5 5 5 10 -29 43 -36 36 -7 -6 36 -49 46 -45 4 1 13 -9 19 -23 6 -14 16 -25
22 -25 6 0 20 -13 30 -29 11 -16 26 -27 33 -24 7 3 10 10 6 16 -4 6 -1 7 6 3
7 -5 11 -10 8 -12 -2 -2 28 -36 67 -75 39 -40 71 -77 71 -83 0 -6 5 -11 12
-11 6 0 15 -4 20 -9 4 -5 3 -6 -3 -3 -7 4 -14 1 -17 -6 -7 -18 59 -82 68 -66
6 8 4 10 -5 4 -9 -6 -11 -4 -5 5 6 9 4 11 -5 5 -9 -6 -11 -4 -5 5 6 10 16 4
41 -22 18 -20 36 -33 40 -30 4 4 4 1 0 -6 -4 -7 -1 -15 8 -18 9 -3 16 -11 16
-16 0 -6 -6 -6 -14 1 -11 9 -16 9 -22 -1 -4 -7 -4 -10 1 -6 11 10 36 -12 28
-24 -3 -6 0 -8 8 -6 8 3 13 14 11 24 -2 15 -1 16 7 5 6 -10 6 -22 -1 -34 -7
-14 -7 -17 1 -13 6 4 11 3 11 -3 0 -18 48 -63 55 -51 3 5 12 10 18 10 8 0 8
-3 -2 -9 -10 -7 -11 -13 -2 -30 7 -12 16 -19 22 -16 5 4 9 -1 9 -9 0 -9 5 -16
11 -16 5 0 7 -4 4 -10 -3 -5 0 -7 9 -4 12 5 10 10 -7 27 -12 12 -25 21 -29 20
-3 -1 -9 4 -12 13 -8 20 10 10 56 -34 22 -22 34 -41 30 -50 -4 -11 -1 -13 9
-7 11 6 11 5 3 -4 -8 -9 -3 -20 20 -44 35 -36 50 -44 53 -28 1 7 -1 7 -4 1 -2
-5 -17 5 -31 22 -15 18 -26 33 -24 35 6 8 17 2 17 -9 1 -7 6 -12 13 -11 7 2
11 -2 9 -9 -1 -7 3 -12 9 -13 6 0 17 -7 25 -16 8 -8 29 -31 47 -51 24 -26 30
-38 21 -43 -8 -6 -10 -4 -4 5 6 9 4 11 -5 5 -9 -6 -11 -4 -5 5 6 9 4 11 -5 5
-9 -6 -11 -4 -5 5 6 9 4 11 -5 5 -9 -6 -11 -4 -5 5 6 9 4 11 -5 5 -9 -6 -11
-4 -5 5 6 9 4 11 -5 5 -8 -5 -11 -4 -7 2 4 6 0 16 -8 23 -12 10 -15 10 -15 0
0 -17 84 -100 101 -100 11 0 11 2 -1 10 -8 5 -10 10 -4 10 15 0 36 -25 28 -33
-3 -3 -13 -3 -22 -1 -10 3 -7 -1 6 -8 12 -8 19 -18 15 -23 -4 -4 -3 -5 3 -2 7
4 14 0 18 -8 3 -8 11 -15 18 -14 10 0 10 2 0 6 -6 2 -10 9 -6 14 3 5 14 -1 24
-13 14 -18 16 -26 7 -37 -10 -12 -9 -13 8 -3 18 9 21 7 22 -11 2 -17 0 -19 -7
-7 -5 8 -10 10 -10 5 0 -6 5 -16 12 -23 15 -15 42 -16 33 -2 -4 6 -11 8 -16 5
-5 -3 -6 1 -3 9 5 13 10 11 27 -12 12 -15 25 -28 29 -30 5 -2 8 -11 8 -20 0
-13 -3 -12 -19 4 -10 10 -16 23 -13 28 3 5 -1 6 -7 1 -10 -5 -6 -14 14 -34 18
-17 29 -22 32 -14 4 10 8 9 19 -1 18 -19 18 -32 0 -17 -10 8 -16 9 -21 1 -3
-5 1 -10 9 -10 8 0 18 -9 21 -20 3 -11 14 -20 23 -20 15 1 15 2 -2 15 -11 8
-17 18 -13 21 3 4 13 -1 23 -10 12 -12 13 -20 5 -30 -8 -10 -6 -17 8 -30 14
-13 21 -14 27 -5 5 8 3 10 -6 4 -9 -6 -11 -4 -5 5 5 9 4 11 -3 6 -8 -4 -10 -2
-6 8 4 10 16 3 45 -29 21 -23 39 -46 39 -51 0 -5 -5 -2 -10 6 -8 12 -10 12
-10 1 0 -7 18 -30 40 -51 22 -21 40 -43 40 -49 0 -6 6 -10 13 -8 6 1 11 -5 9
-13 -2 -8 0 -12 4 -7 4 4 15 -5 25 -20 16 -24 18 -25 16 -6 0 12 -5 19 -9 17
-5 -3 -7 -2 -6 3 2 7 -87 101 -98 102 -8 2 -9 9 -3 16 4 3 16 -5 27 -19 10
-14 23 -22 27 -18 5 4 5 2 2 -4 -4 -6 12 -26 33 -43 22 -18 38 -36 35 -42 -4
-5 -2 -9 3 -9 5 0 8 -9 8 -20 -1 -10 3 -19 7 -19 5 0 21 -18 37 -39 22 -30 34
-39 53 -37 19 2 24 -1 20 -12 -5 -12 -7 -12 -14 -1 -6 9 -9 9 -9 1 0 -16 17
-26 25 -13 3 5 12 10 18 10 8 0 8 -3 -2 -9 -17 -11 0 -45 29 -61 11 -6 19 -15
17 -21 -1 -6 8 -13 20 -15 20 -3 20 -2 -5 24 -15 15 -31 26 -36 23 -5 -2 -6 2
-1 9 5 8 4 11 -2 7 -6 -4 -13 0 -17 8 -9 26 3 17 62 -42 31 -32 61 -56 67 -54
5 1 7 0 3 -4 -4 -4 6 -18 21 -31 25 -20 41 -61 19 -48 -5 3 -5 10 -2 16 5 7 2
8 -6 3 -9 -6 -11 -4 -5 5 6 9 4 11 -5 5 -9 -6 -11 -4 -5 5 6 9 4 11 -5 5 -9
-6 -11 -4 -5 6 5 8 5 11 0 7 -8 -8 -45 28 -45 44 0 5 -5 6 -11 2 -8 -4 -7 -9
2 -15 8 -5 11 -9 7 -9 -8 0 24 -34 73 -74 18 -16 33 -32 32 -35 -2 -3 3 -6 10
-6 6 0 12 -5 12 -12 0 -15 12 -26 30 -29 9 -1 12 4 8 14 -5 12 -1 11 13 -4 10
-11 27 -28 36 -36 15 -14 16 -17 2 -22 -10 -4 -13 -2 -8 6 5 7 3 8 -6 3 -10
-6 3 -24 48 -66 33 -31 57 -61 54 -65 -4 -4 -2 -4 5 0 6 3 14 2 18 -4 3 -5 11
-10 17 -10 6 0 -3 14 -20 30 -18 17 -37 30 -42 30 -6 0 -8 5 -4 12 5 7 3 8 -6
3 -9 -6 -11 -4 -5 5 6 9 4 11 -5 5 -9 -6 -11 -4 -5 5 5 9 4 11 -3 6 -8 -5 -10
-2 -6 8 5 13 10 11 28 -11 11 -15 38 -43 58 -61 38 -34 43 -57 10 -45 -9 3
-14 2 -9 -2 4 -5 17 -9 30 -11 12 -1 25 -3 30 -3 4 -1 7 -6 7 -12 0 -8 -4 -8
-14 0 -11 9 -16 9 -22 0 -4 -7 -3 -9 4 -5 6 3 19 -7 28 -24 20 -33 31 -38 31
-15 0 8 -5 11 -10 8 -6 -4 -7 -1 -2 7 6 9 4 11 -5 5 -9 -5 -11 -4 -6 4 6 9 11
9 22 0 7 -6 12 -14 9 -18 -2 -4 8 -15 24 -24 15 -8 33 -27 40 -41 8 -14 18
-23 22 -20 4 2 11 -1 15 -7 4 -7 3 -9 -3 -6 -6 4 -13 1 -16 -7 -7 -18 57 -79
84 -81 12 -1 38 -19 58 -40 21 -24 29 -36 18 -32 -10 4 -21 7 -23 7 -3 0 -2 5
2 12 5 7 3 8 -6 3 -9 -6 -11 -4 -5 5 6 9 4 11 -5 5 -9 -5 -11 -4 -6 3 5 8 2
10 -8 6 -13 -5 -11 -10 11 -27 14 -12 44 -40 66 -64 22 -24 46 -43 54 -43 8 0
11 5 8 10 -4 6 -11 7 -17 4 -7 -5 -8 -2 -3 6 6 9 4 11 -5 5 -9 -6 -11 -4 -5 5
6 9 4 11 -5 5 -9 -6 -11 -4 -5 5 6 9 4 11 -5 5 -9 -6 -11 -4 -5 5 6 9 4 11 -5
5 -9 -6 -11 -4 -5 5 5 8 4 11 -3 6 -6 -3 -13 -2 -17 4 -3 5 0 10 7 10 22 0 92
-76 78 -85 -8 -5 -6 -12 6 -26 9 -10 21 -16 25 -13 5 3 9 -2 9 -10 0 -9 5 -16
10 -16 7 0 7 7 0 20 -6 11 -14 19 -18 16 -4 -2 -12 2 -19 9 -10 10 -9 14 2 18
8 4 21 -6 31 -21 10 -15 26 -33 36 -40 20 -14 24 -32 7 -32 -5 0 -8 4 -4 9 3
5 1 12 -4 15 -5 4 -12 2 -16 -4 -3 -6 8 -18 24 -28 17 -9 34 -25 37 -34 3 -10
12 -18 20 -18 9 0 12 -5 8 -12 -4 -6 -3 -8 3 -5 13 8 36 -17 25 -28 -4 -5 -2
-5 5 -2 6 4 13 1 16 -5 2 -7 7 -10 11 -7 4 4 -9 22 -28 41 -20 20 -37 33 -40
31 -2 -3 -9 5 -16 16 -7 14 -7 21 0 21 5 0 10 -7 10 -16 0 -8 4 -13 9 -10 4 3
19 -8 31 -24 12 -16 26 -27 31 -25 4 3 10 -4 14 -15 4 -11 11 -17 17 -14 6 4
9 3 6 -2 -6 -11 28 -45 37 -36 3 4 3 -2 -1 -13 -6 -14 -4 -17 9 -12 18 7 33
-8 18 -18 -11 -6 -45 24 -53 46 -3 8 -9 11 -13 7 -5 -4 6 -22 24 -38 24 -23
38 -29 54 -24 20 6 21 5 4 -8 -17 -12 -17 -14 3 -30 11 -10 20 -14 20 -8 0 5
-8 14 -17 19 -15 9 -14 10 7 7 14 -2 24 -9 22 -17 -8 -31 39 -81 54 -57 5 7 2
8 -6 3 -9 -6 -11 -4 -5 5 6 9 4 11 -5 5 -9 -6 -11 -4 -5 5 5 8 4 11 -2 7 -6
-4 -14 0 -17 8 -10 28 26 0 97 -74 71 -74 86 -98 38 -59 -15 13 -26 27 -23 32
3 5 -1 6 -8 1 -9 -6 -11 -4 -5 5 6 9 4 11 -5 5 -9 -5 -11 -4 -6 3 5 8 1 10 -9
6 -13 -5 -10 -11 14 -28 17 -11 31 -27 31 -34 0 -6 3 -11 8 -10 4 1 22 -12 41
-30 18 -18 39 -32 45 -31 30 4 37 -2 31 -23 -6 -21 -5 -22 8 -5 8 9 17 17 20
17 11 0 137 134 137 145 0 18 -42 72 -115 149 -11 12 -59 64 -107 116 -189
208 -623 645 -1824 1835 -471 468 -869 863 -883 879 -51 58 -633 636 -640 636
-9 0 -141 133 -141 143 0 20 30 1 96 -60 95 -89 684 -671 684 -676 0 -2 93
-96 206 -208 113 -112 433 -430 712 -707 1086 -1077 1618 -1611 1794 -1803
134 -145 196 -216 218 -248 22 -33 28 -36 39 -23 12 12 12 18 0 37 -15 25 -80
102 -136 162 -234 251 -412 432 -1038 1056 -401 401 -1102 1099 -1556 1553
-454 453 -828 824 -832 824 -4 0 -39 31 -77 70 l-71 70 68 67 c44 43 55 57 30
39 -21 -15 -41 -25 -45 -21 -4 3 1 11 11 16 9 6 17 14 17 20 0 5 -24 -13 -52
-41 -29 -27 -56 -50 -60 -50 -35 0 67 104 217 222 131 103 138 108 148 108 4
0 5 6 1 13 -4 6 -3 9 1 4 5 -4 19 3 32 15 13 12 23 19 23 15 0 -3 14 7 32 23
17 16 35 27 39 24 4 -2 10 0 14 6 4 6 10 8 15 5 4 -3 11 2 14 11 3 8 10 12 16
9 5 -3 10 -1 10 5 0 7 7 10 15 6 8 -3 15 -1 15 5 0 6 7 8 16 5 8 -3 12 -2 9 4
-6 10 42 35 59 31 5 -1 13 3 17 10 4 7 15 14 25 15 9 2 20 8 24 15 4 6 13 8
19 5 6 -4 11 -3 11 2 0 17 193 69 505 136 116 25 226 48 245 51 59 10 161 37
157 42 -9 8 -98 14 -234 15 -79 0 -143 4 -143 8 0 4 -23 3 -51 -2 -32 -6 -55
-6 -61 0 -5 5 -27 6 -51 1 -23 -4 -46 -4 -52 0 -5 5 -46 2 -89 -6 -43 -7 -81
-11 -84 -8 -3 3 2 5 11 5 9 0 18 4 22 9 3 6 -5 8 -18 5 -13 -2 -37 -5 -53 -7
-17 -2 -35 -7 -42 -11 -7 -4 -12 -5 -12 -2 0 2 -15 0 -32 -5 -18 -6 -44 -12
-58 -14 -53 -8 -279 -65 -355 -90 -82 -27 -327 -143 -333 -157 -2 -4 -8 -8
-14 -8 -14 0 -229 -142 -286 -188 l-43 -35 -232 231 c-524 520 -606 602 -609
601 -2 -1 -11 -3 -20 -6z m196 -485 c-3 -5 -12 -4 -20 3 -7 6 -11 15 -8 21 3
5 12 4 20 -3 7 -6 11 -15 8 -21z m350 -360 c-2 -4 5 -12 16 -18 11 -6 17 -16
14 -22 -5 -8 -1 -9 10 -5 9 4 15 3 12 -2 -3 -5 1 -12 10 -15 8 -3 12 -10 9
-16 -6 -9 8 -14 28 -11 4 0 7 -3 7 -9 0 -13 -6 -13 -31 1 -11 5 -17 14 -15 18
3 4 -6 13 -21 20 -14 6 -23 15 -19 18 3 3 -8 16 -25 29 -26 19 -28 23 -11 21
11 0 19 -4 16 -9z m687 -246 c-12 -22 -51 -58 -51 -47 0 9 50 65 57 65 2 0 -1
-8 -6 -18z m-101 -60 c0 -13 -12 -22 -22 -16 -10 6 -1 24 13 24 5 0 9 -4 9 -8z
m12 -34 c-7 -7 -12 -8 -12 -2 0 14 12 26 19 19 2 -3 -1 -11 -7 -17z m38 -338
c0 -5 -7 -7 -15 -4 -8 4 -15 8 -15 10 0 2 7 4 15 4 8 0 15 -4 15 -10z m74 -82
c-3 -5 -12 -4 -20 3 -8 6 -12 14 -9 17 3 3 -1 12 -7 21 -7 9 0 5 14 -8 15 -13
25 -28 22 -33z m79 -68 c3 -11 0 -18 -7 -17 -15 3 -26 19 -20 29 9 14 22 9 27
-12z m24 -27 c-7 -11 19 -33 29 -25 4 4 4 1 0 -6 -6 -11 -12 -10 -27 4 -16 14
-18 34 -3 34 3 0 3 -3 1 -7z m93 -104 c0 -5 5 -7 12 -3 7 4 8 3 4 -5 -6 -9
-11 -9 -22 0 -17 14 -18 19 -4 19 6 0 10 -5 10 -11z m240 -240 c0 -5 5 -7 12
-3 7 4 8 3 4 -5 -6 -9 -11 -9 -22 0 -17 14 -18 19 -4 19 6 0 10 -5 10 -11z
m380 -394 c0 -15 -2 -17 -9 -6 -5 7 -15 17 -22 22 -10 6 -7 8 9 6 15 -1 22 -8
22 -22z m160 -156 c0 -15 26 -39 34 -31 4 3 4 -1 0 -11 -5 -15 -10 -13 -30 15
-27 36 -28 38 -14 38 6 0 10 -5 10 -11z m-340 -243 c-6 -6 -16 -11 -23 -11 -7
0 -11 -8 -11 -17 1 -11 -4 -14 -14 -11 -10 4 -13 2 -8 -5 4 -7 1 -12 -8 -12
-9 0 -15 -3 -15 -7 3 -18 -2 -24 -12 -17 -13 8 65 91 87 91 10 0 12 -3 4 -11z
m-137 -143 c-4 -11 -8 -13 -11 -5 -2 7 -9 9 -15 5 -7 -4 -6 1 2 10 16 20 33
13 24 -10z m857 -13 c0 -5 -2 -10 -4 -10 -3 0 -8 5 -11 10 -3 6 -1 10 4 10 6
0 11 -4 11 -10z m-1175 -270 c-3 -5 -1 -10 6 -10 7 0 10 -3 6 -6 -9 -9 -28 6
-22 17 4 5 8 9 11 9 3 0 2 -4 -1 -10z m1695 -275 c4 2 15 -4 24 -14 14 -16 15
-19 2 -24 -9 -4 -24 9 -41 33 -15 22 -31 37 -36 34 -11 -6 -12 10 -2 20 4 3
15 -7 26 -24 10 -16 22 -28 27 -25z m-1946 26 c3 -4 -12 -25 -34 -45 -47 -44
-53 -32 -9 19 34 38 35 39 43 26z m-954 -135 c-1 -6 -7 4 -15 23 -8 18 -15 38
-15 45 1 6 7 -4 15 -23 8 -18 15 -38 15 -45z m47 -123 c-3 -2 -12 15 -22 39
-28 69 -27 78 0 19 14 -29 24 -55 22 -58z m17 -29 c3 -8 2 -12 -4 -9 -6 3 -10
10 -10 16 0 14 7 11 14 -7z m3123 -20 c-3 -3 3 -15 14 -27 20 -22 27 -53 9
-42 -6 4 -8 10 -5 15 6 10 -19 32 -28 24 -3 -3 -4 2 -2 13 5 24 4 23 12 23 3
0 4 -3 0 -6z m-2611 -51 c-2 -9 -14 -23 -27 -31 -23 -13 -23 -13 -5 2 11 9 16
16 12 16 -5 0 -3 7 4 15 16 19 19 19 16 -2z m2731 -100 c0 -9 -4 -10 -14 -2
-7 6 -13 12 -13 14 0 1 6 2 13 2 8 0 14 -6 14 -14z m-2653 -188 c3 -8 1 -15
-4 -15 -6 0 -10 7 -10 15 0 8 2 15 4 15 2 0 6 -7 10 -15z m67 -107 c24 -35 46
-64 51 -66 4 -2 8 -10 8 -17 0 -8 10 -22 23 -32 12 -10 43 -44 70 -75 26 -31
65 -74 87 -94 22 -21 38 -40 35 -42 -12 -12 -295 311 -295 336 0 5 -7 15 -15
22 -14 12 -20 30 -10 30 2 0 23 -28 46 -62z m2917 -28 c21 -14 31 -40 14 -40
-5 0 -21 13 -36 29 -29 31 -18 36 22 11z m-3581 -86 c-24 -28 -24 -28 -33 -12
-4 6 -3 8 3 5 10 -6 28 19 25 35 -1 4 5 5 12 2 12 -4 10 -10 -7 -30z m3894
-237 c-10 -9 -11 -8 -5 6 3 10 9 15 12 12 3 -3 0 -11 -7 -18z m-2886 -37 c10
-11 16 -20 13 -20 -3 0 -13 9 -23 20 -10 11 -16 20 -13 20 3 0 13 -9 23 -20z
m89 -79 c-3 -3 -15 6 -27 18 l-22 24 27 -19 c14 -10 24 -21 22 -23z m-1578
-95 c-3 -21 -27 -47 -37 -40 -5 3 -9 -3 -10 -13 0 -12 -2 -13 -6 -5 -3 8 7 27
23 43 32 33 33 34 30 15z m4820 -205 c-6 -9 12 -28 27 -30 7 -1 10 -9 5 -13
-8 -7 -49 32 -43 41 3 6 8 11 11 11 3 0 3 -4 0 -9z m-2966 -151 c8 -5 11 -10
5 -10 -5 0 -17 5 -25 10 -8 5 -10 10 -5 10 6 0 17 -5 25 -10z m-10 -32 c0 -5
-9 -4 -20 2 -11 6 -20 12 -20 14 0 2 9 2 20 -1 11 -3 20 -9 20 -15z m65 12 c3
-6 -1 -7 -9 -4 -18 7 -21 14 -7 14 6 0 13 -4 16 -10z m139 -35 c50 -14 92 -28
95 -31 3 -4 -3 -4 -14 -1 -11 4 -31 8 -45 11 -46 9 -65 14 -92 25 -16 6 -28 8
-28 5 0 -4 -6 -1 -13 5 -8 6 -17 8 -20 4 -4 -3 -7 -1 -7 6 0 7 7 10 18 7 9 -3
57 -17 106 -31z m-2608 -170 c-3 -21 -57 -75 -68 -68 -6 3 7 23 28 44 43 44
43 44 40 24z"/>
<path d="M4016 3527 c3 -10 9 -15 12 -12 3 3 0 11 -7 18 -10 9 -11 8 -5 -6z"/>
<path d="M2029 3543 l-24 -28 28 24 c25 23 32 31 24 31 -2 0 -14 -12 -28 -27z"/>
<path d="M4735 2780 c10 -11 20 -20 23 -20 3 0 -3 9 -13 20 -10 11 -20 20 -23
20 -3 0 3 -9 13 -20z"/>
<path d="M659 2233 c-13 -16 -12 -17 4 -4 9 7 17 15 17 17 0 8 -8 3 -21 -13z"/>
<path d="M84 1638 l-29 -33 33 29 c17 17 32 31 32 33 0 8 -8 1 -36 -29z"/>
<path d="M810 6852 c0 -8 22 -36 49 -62 27 -26 53 -55 58 -65 9 -15 11 -15 16
-1 4 10 -1 20 -14 26 -11 6 -17 16 -13 23 4 7 4 9 -1 5 -14 -13 -47 12 -40 30
3 9 3 13 -1 9 -4 -3 -18 6 -30 21 -13 15 -24 21 -24 14z"/>
<path d="M2280 6641 c-79 -29 -180 -78 -180 -86 0 -7 46 5 85 21 17 7 33 13
37 13 4 1 29 11 55 22 90 39 98 42 106 41 4 -1 7 3 7 8 0 16 -30 11 -110 -19z"/>
<path d="M1010 6634 c0 -8 5 -12 10 -9 6 4 8 11 5 16 -9 14 -15 11 -15 -7z"/>
<path d="M1969 6481 c-78 -39 -179 -101 -209 -128 -31 -28 -16 -30 28 -3 18
11 39 20 47 20 8 0 15 4 15 8 0 4 19 18 43 30 68 36 111 62 132 83 27 26 11
23 -56 -10z"/>
<path d="M1280 6360 c-12 -8 -10 -10 8 -10 13 0 20 4 17 10 -7 12 -6 12 -25 0z"/>
<path d="M1340 6316 c0 -2 8 -10 18 -17 15 -13 16 -12 3 4 -13 16 -21 21 -21
13z"/>
<path d="M2444 6295 c-4 -8 -10 -13 -14 -10 -11 7 -61 -35 -55 -46 4 -5 -3 -9
-14 -9 -12 0 -21 -5 -21 -11 0 -5 -4 -8 -9 -4 -5 3 -13 0 -17 -6 -4 -8 -3 -9
4 -5 7 4 12 1 12 -6 0 -8 5 -6 11 5 5 9 18 17 27 17 13 -1 11 -6 -11 -25 -15
-14 -24 -25 -19 -25 5 0 19 11 32 25 13 14 20 25 16 25 -5 0 -3 6 3 13 6 8 8
16 5 20 -3 3 3 10 14 16 11 6 22 8 25 5 3 -3 10 4 17 15 6 12 8 21 5 21 -3 0
-8 -7 -11 -15z"/>
<path d="M2472 6284 c-7 -8 -8 -14 -3 -14 10 0 25 19 20 25 -2 1 -10 -3 -17
-11z"/>
<path d="M2420 6239 c-22 -18 -22 -19 -3 -10 12 6 25 16 28 21 9 15 3 12 -25
-11z"/>
<path d="M2300 6180 c-9 -6 -10 -10 -3 -10 6 0 15 5 18 10 8 12 4 12 -15 0z"/>
<path d="M4680 6119 c0 -7 -3 -9 -6 -6 -4 3 -15 -4 -25 -17 -22 -27 -24 -36
-8 -36 5 0 8 4 5 9 -3 5 1 14 9 21 8 7 15 9 15 4 0 -5 5 -2 11 6 9 13 10 13 6
0 -2 -8 -10 -15 -18 -15 -8 -1 -13 -6 -11 -13 1 -7 -9 -17 -24 -22 -14 -6 -23
-14 -19 -19 3 -6 -3 -15 -14 -21 -14 -7 -22 -7 -27 2 -5 7 -3 8 6 3 9 -5 11
-4 6 3 -5 8 -1 10 11 6 13 -4 15 -3 5 4 -11 7 -11 10 2 15 9 4 16 12 16 18 0
7 -18 -6 -40 -28 -21 -22 -42 -38 -46 -34 -4 3 -4 1 -1 -5 6 -10 -1 -18 -56
-61 -15 -12 -28 -25 -28 -30 0 -4 -10 -13 -22 -20 l-22 -12 23 2 c20 1 27 9
23 31 -1 5 5 6 14 2 11 -4 14 -2 9 6 -5 7 -3 8 6 3 9 -6 11 -4 5 5 -6 9 -4 11
5 5 9 -6 11 -4 5 5 -6 9 -4 11 5 5 9 -6 4 -15 -19 -37 -17 -16 -33 -28 -36
-28 -4 1 -18 -14 -33 -32 -15 -18 -36 -34 -47 -36 -14 -2 -11 3 11 17 32 19
62 53 33 36 -65 -39 -98 -83 -51 -69 9 3 7 -1 -6 -8 -12 -8 -19 -17 -15 -22 4
-4 -1 -4 -11 0 -14 5 -15 9 -4 15 7 5 8 9 2 9 -6 0 -19 -9 -28 -19 -13 -14
-14 -21 -5 -27 8 -5 10 -3 4 6 -6 9 -4 11 5 5 9 -6 11 -4 5 5 -6 9 -4 11 4 5
9 -5 3 -17 -21 -44 -18 -19 -34 -37 -34 -39 -1 -1 -4 4 -8 13 -4 11 -2 14 6 9
7 -5 8 -3 3 6 -6 9 -4 11 5 5 9 -6 11 -4 5 5 -6 9 -4 11 6 5 10 -6 11 -5 3 4
-8 9 -20 3 -50 -26 -21 -21 -39 -42 -39 -48 -1 -5 -6 -9 -13 -7 -7 1 -11 -3
-10 -10 2 -7 -3 -12 -9 -13 -15 0 -18 -13 -7 -23 4 -4 4 -1 -1 7 -5 9 -4 12 2
8 6 -4 18 2 28 13 10 11 23 20 28 20 5 0 -5 -13 -23 -29 -19 -16 -39 -27 -45
-25 -7 3 -33 -16 -59 -42 -27 -26 -41 -44 -32 -41 9 4 16 1 16 -4 0 -7 -11 -9
-25 -7 -13 3 -22 1 -19 -4 3 -4 -1 -11 -9 -14 -8 -3 -17 -15 -20 -26 -3 -11
-10 -17 -15 -14 -6 3 -24 -9 -40 -28 -17 -19 -33 -32 -37 -28 -3 3 -3 -2 1
-12 5 -14 9 -15 15 -4 5 7 9 8 9 2 0 -19 -12 -24 -34 -12 -18 10 -19 9 -9 -3
8 -10 9 -19 1 -29 -8 -12 -9 -12 -4 3 3 9 1 17 -4 17 -6 0 -10 -5 -10 -11 0
-5 -6 -7 -12 -3 -10 6 -10 5 -1 -8 11 -12 8 -20 -17 -46 -17 -18 -30 -28 -30
-24 -1 4 -7 -4 -16 -18 -12 -21 -14 -22 -12 -5 2 11 12 25 23 32 16 10 17 12
4 13 -17 0 -49 -29 -33 -31 5 0 -1 -4 -14 -10 -15 -6 -22 -16 -20 -28 3 -19
-35 -61 -55 -61 -6 0 3 11 21 23 17 13 29 26 26 30 -3 3 -14 -2 -24 -11 -10
-9 -30 -28 -44 -41 -15 -13 -24 -26 -20 -30 4 -3 9 0 11 7 3 6 10 9 15 6 7 -4
8 -2 4 4 -5 8 -1 10 10 5 14 -5 12 -8 -11 -20 -14 -8 -32 -13 -38 -10 -7 2
-40 -25 -75 -59 -35 -35 -58 -64 -52 -64 6 0 13 7 17 16 5 13 8 13 15 2 7 -9
8 -7 3 7 -3 11 -3 16 1 13 3 -4 17 4 31 18 14 14 28 23 30 20 5 -5 -56 -69
-67 -71 -11 -2 -95 -91 -92 -98 1 -5 -1 -6 -6 -3 -9 5 -43 -29 -36 -36 2 -3
-3 -5 -11 -5 -9 0 4 21 33 52 26 28 51 49 56 47 5 -3 6 1 1 8 -6 10 -11 10
-20 -3 -7 -9 -15 -13 -19 -9 -4 4 -6 0 -4 -8 2 -8 -3 -14 -10 -12 -8 1 -11 -1
-8 -6 7 -11 -30 -42 -40 -34 -4 4 -4 2 0 -5 3 -6 0 -15 -8 -20 -17 -9 -2 -28
82 -106 l51 -47 398 401 c219 220 512 515 650 655 139 140 252 259 250 266 -3
18 -61 78 -74 78 -6 0 -19 7 -27 16 -11 10 -16 11 -16 3z m-119 -137 c-6 -2
-8 -9 -5 -14 4 -7 2 -8 -5 -4 -6 4 -14 0 -17 -8 -3 -9 -11 -16 -16 -16 -6 0 3
15 19 33 15 18 30 29 32 23 2 -5 -1 -12 -8 -14z m-324 -310 c0 -12 -10 -18
-26 -19 -26 -2 -26 -2 -3 9 12 6 22 15 22 20 0 4 2 8 4 8 3 0 4 -8 3 -18z
m-107 -116 c-6 -6 -15 -11 -20 -11 -6 0 -9 -3 -7 -6 4 -11 -25 -39 -35 -33 -5
4 5 21 23 40 18 18 36 31 41 27 6 -3 5 -10 -2 -17z m-103 -87 c-9 -6 -14 -15
-11 -21 4 -7 2 -8 -5 -4 -14 9 3 36 23 36 6 0 3 -5 -7 -11z m-54 -53 c4 -11 1
-13 -11 -9 -9 3 -14 3 -10 -2 10 -11 -11 -36 -24 -29 -5 3 1 17 13 30 27 28
25 28 32 10z m-213 -212 c0 -8 -5 -12 -10 -9 -6 4 -8 11 -5 16 9 14 15 11 15
-7z m-128 -121 c-6 -2 -10 -8 -8 -11 2 -4 -7 -7 -20 -7 -22 0 -23 1 -7 13 9 6
24 12 32 11 11 0 12 -2 3 -6z"/>
<path d="M4812 6000 c2 -12 -352 -374 -1199 -1226 -83 -83 -92 -97 -72 -110 7
-4 210 194 493 480 265 268 557 562 649 654 l168 168 -21 25 c-12 14 -19 18
-18 9z"/>
<path d="M1809 5613 c-66 -101 -89 -141 -89 -152 0 -3 10 10 22 29 12 19 48
75 81 123 32 49 56 91 54 93 -2 3 -33 -39 -68 -93z"/>
<path d="M1963 5645 c0 -7 6 -11 14 -8 7 3 13 6 13 8 0 2 -6 5 -13 8 -8 3 -14
-1 -14 -8z"/>
<path d="M5110 5500 c-70 -18 -129 -51 -172 -96 -29 -32 -74 -122 -83 -169
-17 -88 0 -225 38 -297 58 -113 189 -181 337 -177 122 4 250 47 295 101 23 27
25 37 25 133 0 58 -5 115 -12 130 -16 34 -60 44 -192 42 -100 -2 -109 -4 -127
-26 -10 -12 -17 -32 -15 -44 3 -12 5 -25 5 -28 2 -15 68 -32 124 -33 l61 -1 2
-40 c0 -22 -1 -45 -3 -52 -8 -20 -85 -45 -153 -48 -144 -8 -220 75 -222 244
-2 146 72 241 190 243 75 2 113 -16 152 -71 43 -61 78 -79 119 -61 99 40 33
187 -107 241 -73 27 -176 31 -262 9z"/>
<path d="M7748 5489 l-33 -27 -1 -313 c-2 -356 1 -373 59 -384 42 -8 75 7 87
41 6 14 10 113 10 221 0 173 2 194 15 183 8 -7 15 -18 15 -25 0 -8 3 -15 8
-17 4 -1 32 -41 62 -88 30 -47 57 -87 60 -90 3 -3 27 -39 52 -80 26 -41 61
-91 77 -110 28 -31 36 -35 81 -35 85 0 84 -3 90 283 9 458 6 472 -102 463 -10
0 -25 -12 -34 -26 -14 -22 -17 -57 -17 -235 0 -196 -1 -207 -17 -187 -9 12
-78 115 -152 228 -103 157 -142 208 -164 216 -42 16 -60 13 -96 -18z"/>
<path d="M5705 5493 c-14 -8 -28 -27 -32 -44 -5 -17 -8 -167 -8 -334 l1 -304
24 -26 c29 -31 78 -33 111 -6 23 18 24 26 27 153 2 73 8 136 13 139 6 3 31 3
57 -1 38 -6 53 -15 82 -49 19 -22 44 -58 55 -78 11 -21 22 -40 25 -43 3 -3 18
-25 33 -50 45 -76 54 -84 99 -86 58 -3 89 25 83 73 -6 48 -59 142 -116 206
l-50 56 43 20 c60 28 72 40 96 91 50 110 -9 250 -120 281 -62 18 -390 19 -423
2z m358 -136 c31 -20 41 -59 27 -102 -10 -31 -22 -39 -80 -51 -14 -3 -141 -7
-167 -5 -9 1 -13 25 -13 84 0 46 3 86 6 89 3 4 50 5 104 4 70 -2 106 -8 123
-19z"/>
<path d="M6428 5494 c-14 -7 -30 -26 -35 -41 -5 -16 -9 -165 -8 -332 l1 -303
27 -24 c28 -24 30 -24 261 -24 208 0 236 2 255 18 29 24 34 65 10 91 -11 12
-23 22 -27 23 -4 0 -83 2 -177 4 -93 1 -173 3 -177 3 -5 1 -8 41 -8 90 l0 90
88 0 c267 0 248 -2 265 32 8 17 12 39 10 50 -11 39 -31 44 -187 46 -83 0 -157
2 -163 2 -9 1 -13 24 -13 79 l0 77 175 -1 c158 -1 177 1 195 18 23 22 26 66 6
93 -13 18 -30 19 -243 21 -175 1 -236 -2 -255 -12z"/>
<path d="M7089 5492 c-16 -8 -30 -25 -34 -40 -3 -15 -6 -161 -7 -324 -1 -331
1 -341 64 -353 18 -3 133 -5 256 -3 211 3 224 4 235 23 19 33 18 61 -2 86 -19
24 -22 24 -203 25 l-183 1 -1 91 -1 91 126 0 c69 0 143 0 164 0 66 1 97 54 58
102 -18 23 -24 24 -182 25 l-164 1 -2 77 c-1 51 3 76 10 77 7 0 88 2 181 3
163 1 169 2 187 25 10 12 17 32 15 44 -3 12 -5 25 -5 29 -1 4 -11 13 -23 20
-33 19 -450 18 -489 0z"/>
<path d="M2134 5449 c-4 -7 -3 -9 4 -5 5 3 12 0 15 -6 2 -7 7 -10 11 -7 4 3 0
12 -8 18 -11 9 -16 9 -22 0z"/>
<path d="M1697 5430 c-3 -11 -3 -20 -1 -20 2 0 8 9 14 20 6 11 7 20 2 20 -6 0
-12 -9 -15 -20z"/>
<path d="M1657 5420 c-19 -22 -21 -30 -9 -30 5 0 14 11 20 25 14 30 12 31 -11
5z"/>
<path d="M1615 5342 c-28 -54 -29 -55 -18 -49 13 8 46 77 41 83 -3 2 -13 -13
-23 -34z"/>
<path d="M1666 5363 c-6 -14 -5 -15 5 -6 7 7 10 15 7 18 -3 3 -9 -2 -12 -12z"/>
<path d="M1645 5329 c-4 -6 -5 -12 -2 -15 2 -3 7 2 10 11 7 17 1 20 -8 4z"/>
<path d="M3809 5294 c-16 -20 7 -25 25 -5 14 15 14 18 1 18 -8 0 -20 -6 -26
-13z"/>
<path d="M1580 5269 c0 -5 5 -7 10 -4 6 3 10 8 10 11 0 2 -4 4 -10 4 -5 0 -10
-5 -10 -11z"/>
<path d="M1610 5250 c-6 -11 -8 -20 -6 -20 3 0 10 9 16 20 6 11 8 20 6 20 -3
0 -10 -9 -16 -20z"/>
<path d="M1565 5240 c-3 -5 -1 -10 4 -10 6 0 11 5 11 10 0 6 -2 10 -4 10 -3 0
-8 -4 -11 -10z"/>
<path d="M1551 5207 c-6 -8 -8 -17 -4 -20 3 -4 1 -7 -5 -7 -6 0 -9 -7 -5 -17
4 -11 3 -14 -5 -9 -7 4 -12 2 -12 -3 0 -16 -2 -23 -16 -50 -13 -26 -9 -46 7
-36 5 4 9 1 9 -4 0 -6 7 -11 16 -11 10 0 14 6 11 14 -3 8 0 20 8 26 7 6 12 20
10 30 -2 11 3 24 12 28 13 8 13 10 -3 16 -10 4 -15 4 -11 0 4 -4 0 -16 -10
-26 -9 -10 -13 -18 -8 -18 4 0 3 -6 -3 -12 -6 -7 -11 -16 -11 -20 -2 -14 -15
-9 -17 7 -1 8 2 15 8 15 5 0 8 6 5 13 -2 6 2 17 9 22 8 6 15 19 17 30 1 11 6
26 10 33 11 16 2 15 -12 -1z"/>
<path d="M1586 5201 c-13 -14 -14 -21 -5 -27 8 -4 10 -3 5 4 -4 7 -3 12 2 12
6 0 12 7 16 15 7 20 3 19 -18 -4z"/>
<path d="M1480 5046 c0 -12 5 -16 15 -12 9 3 15 0 15 -8 0 -20 -12 -27 -25
-16 -9 8 -14 6 -18 -4 -4 -9 -1 -18 5 -22 7 -5 8 -2 3 6 -5 8 -3 11 6 8 8 -3
13 -11 11 -17 -1 -7 2 -10 8 -6 5 3 10 13 10 21 0 8 4 14 9 14 5 0 12 8 15 17
4 10 4 14 0 10 -4 -4 -13 -2 -21 4 -7 6 -13 8 -13 3 0 -5 -5 -2 -10 6 -8 13
-10 12 -10 -4z"/>
<path d="M3477 4965 c3 -8 9 -12 14 -9 12 7 11 11 -5 17 -10 4 -13 1 -9 -8z"/>
<path d="M810 4966 c0 -3 -11 -47 -25 -98 -27 -99 -43 -224 -26 -198 9 14 44
150 55 215 3 17 8 42 12 58 3 16 1 27 -5 27 -6 0 -11 -2 -11 -4z"/>
<path d="M2740 4840 c0 -5 7 -10 16 -10 8 0 13 -4 10 -9 -3 -5 14 -27 38 -49
24 -22 41 -44 38 -47 -4 -4 0 -5 8 -3 8 2 14 -2 13 -9 -2 -7 7 -17 20 -23 21
-11 21 -10 3 4 -14 11 -15 16 -6 16 8 0 -1 11 -20 25 -19 14 -30 25 -25 25 11
0 -54 68 -77 81 -12 6 -18 6 -18 -1z m66 -52 l29 -33 -32 29 c-31 28 -38 36
-30 36 2 0 16 -15 33 -32z"/>
<path d="M1396 4673 c1 -3 -1 -16 -6 -28 -5 -13 -12 -57 -15 -97 -4 -40 -8
-83 -10 -95 -2 -13 0 -23 4 -23 4 0 8 14 9 31 0 18 6 37 11 42 6 6 11 16 11
22 0 5 -5 3 -11 -5 -8 -12 -9 -9 -4 10 4 14 6 36 6 49 -1 14 5 28 11 33 10 6
10 8 0 8 -10 0 -10 5 -1 21 6 13 7 24 1 29 -5 4 -8 5 -6 3z"/>
<path d="M2983 4591 c-1 -12 4 -21 12 -21 7 0 15 -6 18 -12 2 -7 7 -11 10 -8
3 3 -4 18 -16 34 -21 26 -23 26 -24 7z"/>
<path d="M5114 4590 c-113 -26 -207 -113 -246 -230 -17 -52 -21 -201 -7 -257
45 -173 171 -264 354 -258 96 4 156 27 213 83 99 97 101 232 3 232 -37 0 -51
-14 -84 -82 -33 -65 -74 -93 -142 -97 -125 -6 -189 76 -187 239 2 130 50 213
137 235 65 16 114 3 159 -43 20 -19 36 -40 36 -46 0 -23 51 -66 79 -66 31 0
70 32 72 58 6 92 -71 184 -185 222 -46 15 -158 21 -202 10z"/>
<path d="M5646 4576 c-15 -14 -26 -37 -27 -53 -2 -74 0 -591 2 -616 5 -40 33
-61 81 -61 31 0 45 6 59 25 20 27 21 27 23 184 l1 110 143 1 c78 0 142 -2 143
-5 0 -3 2 -66 2 -138 2 -118 4 -135 22 -152 44 -44 117 -31 134 23 5 17 10 76
9 131 0 55 1 105 2 110 1 6 2 15 1 20 -1 6 -2 87 -2 180 0 198 -7 238 -47 254
-39 15 -69 10 -95 -17 -20 -21 -22 -35 -24 -130 -1 -59 -2 -114 -2 -122 -1
-13 -22 -15 -129 -14 -70 1 -134 2 -143 3 -14 1 -17 16 -17 104 0 56 -1 109
-1 118 -2 29 -35 58 -73 65 -31 5 -41 2 -62 -20z"/>
<path d="M6590 4585 c-167 -44 -253 -177 -246 -378 5 -142 46 -233 134 -298
65 -48 116 -62 227 -62 89 -1 106 2 156 26 138 67 202 190 195 377 -7 166 -81
276 -219 327 -54 19 -189 24 -247 8z m209 -152 c62 -40 94 -121 90 -225 -3
-75 -14 -112 -46 -156 -32 -43 -61 -61 -114 -70 -92 -17 -177 39 -205 135 -15
50 -19 135 -10 178 3 11 5 25 5 31 1 6 14 31 31 56 27 41 64 66 120 81 24 6
101 -12 129 -30z"/>
<path d="M7210 4578 c-13 -7 -30 -24 -36 -37 -15 -29 -17 -611 -2 -652 17 -48
82 -61 124 -25 29 24 29 25 30 143 1 93 4 118 15 120 8 1 57 4 109 5 161 6
244 58 269 167 26 119 -20 227 -116 268 -52 22 -356 30 -393 11z m281 -128
c45 -13 57 -26 64 -73 8 -45 -17 -92 -55 -105 -14 -5 -59 -9 -99 -8 l-73 1 -2
93 c0 52 1 96 3 98 8 8 127 4 162 -6z"/>
<path d="M737 4414 c-8 -44 -6 -295 4 -354 5 -30 11 -75 14 -98 3 -24 10 -52
15 -62 5 -9 7 -20 4 -22 -2 -3 3 -11 11 -18 14 -12 15 -4 10 81 -3 52 -7 114
-10 139 -2 25 -7 86 -10 135 -10 154 -16 210 -24 218 -5 5 -11 -4 -14 -19z"/>
<path d="M2901 4417 c-6 -8 -8 -17 -4 -20 3 -4 -1 -7 -10 -7 -9 0 -22 -9 -30
-20 -8 -11 -17 -17 -21 -12 -4 4 -6 2 -4 -4 2 -6 -12 -25 -31 -41 -22 -20 -28
-30 -17 -30 9 0 14 2 12 5 -3 2 27 31 65 63 64 56 82 79 60 79 -5 0 -14 -6
-20 -13z"/>
<path d="M1363 4405 c0 -8 4 -12 9 -9 5 3 6 10 3 15 -9 13 -12 11 -12 -6z"/>
<path d="M3226 4341 c-4 -5 -2 -12 3 -15 5 -4 12 -2 15 3 4 5 2 12 -3 15 -5 4
-12 2 -15 -3z"/>
<path d="M1367 4209 c4 -13 8 -18 11 -10 2 7 -1 18 -6 23 -8 8 -9 4 -5 -13z"/>
<path d="M1407 4205 c-4 -8 -3 -16 1 -19 4 -3 9 4 9 15 2 23 -3 25 -10 4z"/>
<path d="M1412 4150 c0 -14 2 -19 5 -12 2 6 2 18 0 25 -3 6 -5 1 -5 -13z"/>
<path d="M3505 4040 c-3 -5 1 -10 10 -10 9 0 13 5 10 10 -3 6 -8 10 -10 10 -2
0 -7 -4 -10 -10z"/>
<path d="M3744 3798 c1 -7 7 -21 12 -32 9 -15 12 -16 17 -3 3 8 -3 23 -13 32
-13 12 -18 13 -16 3z"/>
<path d="M2200 3715 c0 -9 -4 -14 -9 -10 -11 6 -41 -22 -41 -38 0 -7 7 -4 14
5 7 10 15 15 18 13 3 -3 13 3 22 14 11 12 14 21 7 26 -6 3 -11 -1 -11 -10z"/>
<path d="M6268 3686 c-13 -29 -37 -41 -52 -26 -5 5 -13 10 -17 10 -15 0 -59
-48 -59 -64 0 -22 13 -20 35 4 l18 20 22 -20 c27 -25 35 -25 35 0 0 11 -5 20
-11 20 -5 0 -7 5 -3 11 5 8 9 8 14 -1 10 -16 50 26 50 52 0 26 -19 22 -32 -6z"/>
<path d="M7318 3699 c-10 -5 -18 -20 -18 -32 0 -19 1 -20 16 -6 12 13 22 14
56 5 35 -9 42 -8 54 8 16 23 8 42 -12 25 -10 -8 -22 -8 -45 0 -18 6 -32 11
-33 11 -1 0 -9 -5 -18 -11z"/>
<path d="M7995 3680 c-17 -33 -18 -40 -7 -40 19 0 54 40 48 55 -9 23 -24 18
-41 -15z"/>
<path d="M5313 3675 c-26 -18 -46 -72 -31 -81 6 -4 14 -1 19 7 30 49 28 50 59
-1 6 -11 12 -12 20 -4 9 9 8 19 -3 41 -24 46 -40 55 -64 38z"/>
<path d="M5158 3663 c-22 -5 -32 -34 -16 -45 20 -12 45 -9 51 6 8 19 -14 43
-35 39z"/>
<path d="M5882 3648 c-100 -47 -101 -227 -1 -268 49 -21 163 -12 171 13 4 10
3 101 -1 125 -2 14 -94 14 -103 0 -14 -23 -9 -28 27 -28 33 0 35 -2 35 -35 0
-36 -3 -37 -55 -37 -58 0 -84 24 -91 82 -4 34 0 53 15 78 12 17 26 32 33 33 7
0 22 2 32 4 11 2 37 -2 58 -10 35 -12 39 -11 48 5 24 45 -95 72 -168 38z"/>
<path d="M7735 3664 c-5 -1 -22 -5 -37 -8 -33 -7 -74 -44 -86 -77 -14 -37 -8
-123 11 -153 26 -39 74 -60 134 -58 29 1 61 6 72 11 21 12 29 55 21 111 -5 34
-6 35 -53 36 -33 1 -50 -3 -54 -13 -7 -18 -1 -24 33 -26 23 -2 29 -7 31 -30 2
-32 -23 -47 -72 -41 -58 7 -89 74 -69 150 11 42 75 60 135 39 36 -13 40 -13
46 2 7 18 -29 53 -56 54 -9 0 -23 2 -31 3 -8 2 -19 2 -25 0z"/>
<path d="M8028 3646 c-29 -26 -62 -25 -72 0 -9 23 -35 17 -29 -6 16 -62 133
-53 133 10 0 24 1 25 -32 -4z"/>
<path d="M4836 3645 c-7 -19 7 -25 60 -28 l39 -3 2 -104 c1 -58 2 -113 2 -122
1 -12 9 -18 26 -18 l24 0 3 122 3 123 35 1 c57 2 60 3 60 24 0 19 -7 20 -124
20 -102 0 -125 -3 -130 -15z"/>
<path d="M6977 3653 c-9 -8 -9 -246 -1 -267 9 -24 138 -22 184 2 95 50 93 210
-3 255 -35 17 -166 24 -180 10z m163 -55 c43 -27 46 -116 5 -157 -17 -17 -36
-25 -69 -26 -29 -2 -46 2 -47 9 -3 34 -4 173 -1 183 5 15 84 8 112 -9z"/>
<path d="M7335 3636 c-25 -26 -32 -46 -16 -46 5 0 17 7 26 16 16 16 45 13 45
-6 0 -5 7 -10 15 -10 31 0 11 39 -32 64 -8 4 -23 -4 -38 -18z"/>
<path d="M5295 3565 c-43 -17 -58 -40 -61 -90 -2 -37 2 -50 26 -75 15 -16 39
-30 52 -31 65 -3 108 11 108 36 0 12 -11 14 -58 9 -55 -6 -58 -5 -69 19 l-12
26 72 3 72 3 -3 30 c-6 60 -69 95 -127 70z m69 -41 c27 -26 18 -34 -35 -34
-55 0 -62 15 -18 37 31 16 34 16 53 -3z"/>
<path d="M5473 3567 c-4 -7 -8 -52 -8 -100 -1 -74 2 -90 16 -98 25 -13 33 5
34 73 1 60 22 98 51 94 25 -4 34 -28 33 -81 -1 -84 -1 -85 26 -85 22 0 25 4
26 38 3 101 -11 161 -37 163 -8 1 -20 2 -26 3 -7 2 -28 -3 -45 -10 -18 -7 -33
-9 -33 -5 0 15 -29 21 -37 8z"/>
<path d="M6143 3569 c-50 -18 -36 -59 14 -42 33 12 73 0 73 -22 0 -9 -10 -15
-27 -16 -63 -3 -78 -7 -94 -28 -42 -51 29 -116 94 -84 16 8 27 9 27 3 0 -14
37 -13 46 2 15 23 1 156 -19 175 -16 16 -83 23 -114 12z m87 -125 c0 -7 -11
-21 -25 -30 -20 -13 -28 -14 -40 -4 -20 17 -19 38 3 42 36 9 62 5 62 -8z"/>
<path d="M6334 3568 c-9 -14 -9 -252 0 -266 3 -6 15 -8 26 -5 16 4 20 14 20
49 l0 45 28 -14 c29 -15 36 -15 70 -3 51 17 70 120 29 167 -28 34 -65 42 -100
24 -15 -7 -27 -10 -27 -6 0 13 -39 20 -46 9z m136 -57 c19 -37 -1 -97 -36
-104 -31 -6 -54 24 -54 70 0 54 65 79 90 34z"/>
<path d="M7348 3572 c-77 -9 -109 -118 -51 -176 41 -41 145 -37 156 6 6 22 -4
30 -23 17 -28 -17 -88 -11 -100 10 -5 11 -10 22 -10 25 0 3 32 6 71 6 l71 0
-7 38 c-9 54 -49 81 -107 74z m43 -42 c36 -20 23 -40 -26 -40 -48 0 -55 9 -29
34 18 19 28 20 55 6z"/>
<path d="M7941 3569 c-21 -8 -38 -35 -29 -45 3 -2 24 -1 46 4 42 10 64 3 68
-21 1 -11 -12 -16 -49 -20 -65 -6 -91 -33 -75 -77 5 -17 11 -30 12 -30 0 0 15
-4 33 -9 22 -6 39 -5 57 4 15 8 26 10 26 4 0 -6 10 -9 23 -7 20 3 22 8 23 73
0 38 -1 77 -3 85 -9 35 -83 57 -132 39z m89 -126 c0 -7 -11 -20 -25 -29 -20
-13 -28 -14 -40 -4 -18 15 -19 37 -2 43 23 10 67 3 67 -10z"/>
<path d="M8132 3560 c-9 -24 -7 -243 1 -257 4 -6 16 -9 27 -6 16 4 20 14 20
49 0 24 5 44 10 44 6 0 10 -4 10 -9 0 -14 32 -18 67 -9 80 21 85 157 8 196
-22 11 -65 6 -79 -8 -12 -12 -29 -13 -22 -1 3 5 -3 11 -15 14 -14 4 -22 0 -27
-13z m137 -49 c6 -13 8 -57 2 -82 0 -3 -12 -11 -26 -17 -21 -10 -28 -9 -45 8
-27 27 -27 84 1 103 24 17 56 11 68 -12z"/>
<path d="M5140 3481 c0 -105 4 -121 31 -114 17 5 19 15 19 104 0 99 0 99 -25
99 -25 0 -25 -1 -25 -89z"/>
<path d="M6682 3483 c3 -15 13 -18 63 -18 47 0 60 3 60 15 0 11 -15 16 -63 18
-57 3 -63 1 -60 -15z"/>
<path d="M1900 3430 c0 -5 -3 -9 -7 -8 -5 2 -23 -11 -41 -29 -24 -23 -30 -33
-20 -39 7 -4 10 -4 6 1 -4 4 10 20 31 36 42 30 58 49 42 49 -6 0 -11 -4 -11
-10z"/>
<path d="M1496 3407 c3 -10 9 -15 12 -12 3 3 0 11 -7 18 -10 9 -11 8 -5 -6z"/>
<path d="M1506 3367 c3 -10 9 -15 12 -12 3 3 0 11 -7 18 -10 9 -11 8 -5 -6z"/>
<path d="M1526 3320 c11 -42 66 -160 75 -160 5 0 -4 26 -19 58 -16 31 -36 73
-45 92 -11 23 -15 26 -11 10z"/>
<path d="M5317 3327 c-16 -11 -16 -14 -3 -32 13 -18 16 -19 31 -4 9 9 13 23 9
32 -7 20 -15 21 -37 4z"/>
<path d="M4345 3170 c-3 -5 1 -13 10 -16 22 -9 29 1 11 15 -10 8 -16 9 -21 1z"/>
<path d="M4614 2887 c-4 -6 -4 -9 1 -5 4 4 13 0 20 -9 7 -9 15 -12 18 -7 3 6
-3 15 -13 22 -15 9 -21 9 -26 -1z"/>
<path d="M4657 2853 c-4 -3 -7 -11 -7 -17 0 -6 5 -4 10 4 8 13 10 12 10 -2 0
-10 5 -18 10 -18 7 0 7 6 0 20 -12 22 -14 23 -23 13z"/>
<path d="M4780 2720 c0 -6 7 -10 15 -10 8 0 15 2 15 4 0 2 -7 6 -15 10 -8 3
-15 1 -15 -4z"/>
<path d="M1955 2700 c3 -5 8 -10 11 -10 2 0 4 5 4 10 0 6 -5 10 -11 10 -5 0
-7 -4 -4 -10z"/>
<path d="M1049 2634 c-16 -20 7 -25 25 -5 14 15 14 18 1 18 -8 0 -20 -6 -26
-13z"/>
<path d="M5170 2340 c0 -5 5 -10 11 -10 5 0 7 5 4 10 -3 6 -8 10 -11 10 -2 0
-4 -4 -4 -10z"/>
<path d="M5370 2152 c0 -11 8 -18 20 -19 11 -1 20 -1 20 0 0 2 -9 10 -20 20
-19 16 -20 16 -20 -1z"/>
<path d="M5550 1971 c0 -25 6 -27 13 -6 4 8 2 17 -3 20 -6 4 -10 -3 -10 -14z"/>
<path d="M4350 1959 c-19 -11 -26 -17 -15 -13 11 3 28 9 38 11 9 3 17 9 17 14
0 11 1 12 -40 -12z"/>
<path d="M345 1934 c-8 -13 -43 -50 -77 -82 -33 -33 -56 -62 -51 -65 6 -4 30
15 53 41 23 26 59 65 80 88 24 24 33 41 25 41 -8 0 -22 -11 -30 -23z m-55 -77
c0 -2 -17 -19 -37 -38 l-38 -34 34 38 c33 34 41 42 41 34z"/>
<path d="M4230 1925 c-142 -43 -149 -45 -115 -40 60 10 195 50 195 57 0 5 -1
8 -2 7 -2 -1 -37 -11 -78 -24z"/>
<path d="M2210 1920 c0 -23 251 -148 330 -165 3 -1 37 -11 75 -22 222 -66 163
-18 -95 78 -41 15 -104 39 -140 54 -107 44 -170 64 -170 55z"/>
<path d="M4204 1809 c-99 -20 -146 -42 -69 -33 28 3 68 10 90 15 22 5 51 12
65 15 34 7 48 22 19 21 -13 -1 -60 -9 -105 -18z"/>
<path d="M190 1770 c-8 -5 -12 -12 -9 -15 4 -3 12 1 19 10 14 17 11 19 -10 5z"/>
</g>
</svg>
