<svg width="14" height="18" viewBox="0 0 14 18" fill="none" xmlns="http://www.w3.org/2000/svg">
<circle cx="6.66667" cy="11.25" r="6.66667" fill="#E05000"/>
<path d="M6.8342 14.8577C6.30587 14.8577 5.83397 14.7667 5.41848 14.5846C5.00556 14.4025 4.67856 14.1499 4.43748 13.8267C4.19896 13.501 4.07073 13.124 4.05278 12.6957H5.26075C5.27614 12.9291 5.35437 13.1317 5.49542 13.3035C5.63905 13.4728 5.82627 13.6036 6.0571 13.6959C6.28792 13.7882 6.54439 13.8344 6.82651 13.8344C7.13684 13.8344 7.41126 13.7805 7.64978 13.6728C7.89086 13.5651 8.07937 13.4151 8.2153 13.2227C8.35123 13.0278 8.41919 12.8034 8.41919 12.5495C8.41919 12.2853 8.35123 12.0532 8.2153 11.8532C8.08193 11.6505 7.88573 11.4915 7.6267 11.3761C7.37023 11.2607 7.0599 11.203 6.69571 11.203H6.03017V10.2335H6.69571C6.98809 10.2335 7.24456 10.181 7.46512 10.0758C7.68825 9.97066 7.86265 9.82448 7.98832 9.63725C8.11399 9.44746 8.17683 9.22562 8.17683 8.97171C8.17683 8.72806 8.12169 8.51647 8.0114 8.33694C7.90369 8.15485 7.7498 8.01251 7.54976 7.90992C7.35227 7.80733 7.11889 7.75604 6.84959 7.75604C6.59312 7.75604 6.35332 7.80348 6.13019 7.89838C5.90962 7.99071 5.7301 8.12407 5.5916 8.29847C5.45311 8.47031 5.37873 8.67677 5.36847 8.91785H4.2182C4.23102 8.49211 4.35669 8.11766 4.59521 7.79451C4.83629 7.47135 5.15432 7.21873 5.54928 7.03664C5.94425 6.85454 6.38281 6.76349 6.86498 6.76349C7.37023 6.76349 7.80623 6.86224 8.17298 7.05972C8.5423 7.25464 8.82698 7.51495 9.02703 7.84067C9.22964 8.16639 9.32967 8.52289 9.3271 8.91016C9.32967 9.35129 9.20656 9.72573 8.95778 10.0335C8.71157 10.3413 8.38329 10.5477 7.97293 10.6529V10.7144C8.49613 10.7939 8.90136 11.0017 9.18861 11.3377C9.47842 11.6736 9.62204 12.0904 9.61948 12.5879C9.62204 13.0214 9.5015 13.4099 9.25785 13.7536C9.01677 14.0973 8.68721 14.3679 8.26916 14.5653C7.85111 14.7603 7.37279 14.8577 6.8342 14.8577Z" fill="white"/>
</svg>
