<svg width="20" height="21" viewBox="0 0 20 21" fill="none" xmlns="http://www.w3.org/2000/svg">
<path d="M16.1666 12.8798C15.4949 12.7353 14.9635 13.0471 14.493 13.3195C14.0111 13.6001 13.0949 14.3434 12.5697 14.1532C9.88084 13.0461 7.35189 10.6926 6.25714 7.99292C6.0642 7.45653 6.804 6.53446 7.08259 6.04692C7.35292 5.57498 7.65833 5.03858 7.51904 4.36185C7.39316 3.75372 5.76497 1.68194 5.18923 1.11539C4.80952 0.741162 4.42053 0.535335 4.02123 0.50207C2.51995 0.437619 0.843272 2.44079 0.549208 2.92002C-0.187499 3.94187 -0.183372 5.30158 0.56159 6.95027C2.35693 11.3787 9.14723 18.0618 13.5922 19.9247C14.4125 20.3082 15.1626 20.5005 15.8364 20.5005C16.4957 20.5005 17.0828 20.3166 17.5874 19.9517C17.9681 19.7323 20.0534 17.9724 19.9987 16.4308C19.9657 16.0378 19.7604 15.6449 19.391 15.2644C18.8286 14.6833 16.7702 13.0066 16.1666 12.8798Z" fill="#A3A3A3"/>
</svg>
