<svg width="465" height="312" viewBox="0 0 465 312" fill="none" xmlns="http://www.w3.org/2000/svg">
<g clip-path="url(#clip0_90_2023)">
<path d="M392.647 197.62C394.914 239.329 313.365 324.137 212.86 292.75C166.115 278.15 170.074 253.915 134.532 221.979C113.348 202.944 82.9008 188.547 74.435 160.876C67.1189 136.994 71.6066 111.323 84.2857 94.6263C112.805 57.0724 170.374 31.3614 227.1 90.524C283.833 149.687 386.801 90.0537 392.647 197.62Z" fill="url(#paint0_linear_90_2023)"/>
<path d="M371.411 89.8968C363.409 104.183 345.876 106.143 317.794 103.432C296.675 101.387 277.412 99.8063 256.293 88.2899C241.51 80.2356 229.805 69.3398 221.267 58.7511C212.011 47.287 199.09 34.1963 205.426 21.1971C214.127 3.33796 264.465 -11.7058 313.333 12.8946C367.015 39.9186 379.243 75.9374 371.411 89.8968Z" fill="url(#paint1_linear_90_2023)"/>
<path fill-rule="evenodd" clip-rule="evenodd" d="M323.732 251.72C323.732 234.691 337.535 220.888 354.571 220.888C371.607 220.888 385.403 234.684 385.403 251.72H323.732ZM385.403 251.72C385.403 268.75 371.6 282.553 354.564 282.553C337.528 282.553 323.725 268.75 323.725 251.714" fill="#46B20F"/>
<path d="M365.153 260.003C365.153 260.003 361.181 263.687 354.564 263.687C347.947 263.687 343.982 260.003 343.982 260.003M344.211 242.974V249.414V242.974ZM364.924 242.974V249.414V242.974Z" stroke="white" stroke-width="3.60188" stroke-linecap="round" stroke-linejoin="round"/>
<path fill-rule="evenodd" clip-rule="evenodd" d="M102.733 259.389C85.6835 259.389 71.8547 245.567 71.8547 228.511C71.8547 211.456 85.677 197.633 102.733 197.633C119.788 197.633 133.611 211.456 133.611 228.511C133.611 245.567 119.782 259.389 102.733 259.389Z" fill="#46B20F"/>
<path d="M111.604 224.285L100.531 235.553L93.8881 228.792" stroke="white" stroke-width="3.08257" stroke-linecap="round" stroke-linejoin="round"/>
<path d="M112.897 156.258L100.375 168.78C99.9174 169.238 99.1792 169.238 98.722 168.78C98.2647 168.323 98.2647 167.585 98.722 167.128L111.244 154.605C111.702 154.148 112.44 154.148 112.897 154.605C113.354 155.063 113.354 155.807 112.897 156.258Z" fill="#E1E4E5"/>
<path d="M105.215 156.206L101.603 159.818C101.145 160.275 100.407 160.275 99.95 159.818C99.4927 159.361 99.4927 158.623 99.95 158.165L103.562 154.553C104.02 154.096 104.758 154.096 105.215 154.553C105.672 155.01 105.672 155.748 105.215 156.206Z" fill="#E1E4E5"/>
<path d="M400.571 117.855L388.048 130.377C387.591 130.834 386.853 130.834 386.396 130.377C385.939 129.92 385.939 129.182 386.396 128.725L398.918 116.202C399.375 115.745 400.113 115.745 400.571 116.202C401.028 116.659 401.028 117.398 400.571 117.855Z" fill="#E1E4E5"/>
<path d="M392.882 117.796L389.27 121.408C388.813 121.866 388.075 121.866 387.617 121.408C387.16 120.951 387.16 120.213 387.617 119.756L391.23 116.143C391.687 115.686 392.425 115.686 392.882 116.143C393.34 116.601 393.34 117.345 392.882 117.796Z" fill="#E1E4E5"/>
<path d="M292.129 229.308L279.607 241.831C279.149 242.288 278.411 242.288 277.954 241.831C277.497 241.373 277.497 240.635 277.954 240.178L290.476 227.656C290.933 227.198 291.672 227.198 292.129 227.656C292.586 228.113 292.586 228.851 292.129 229.308Z" fill="#E1E4E5"/>
<path d="M284.44 229.256L280.828 232.868C280.371 233.326 279.633 233.326 279.175 232.868C278.718 232.411 278.718 231.673 279.175 231.216L282.788 227.603C283.245 227.146 283.983 227.146 284.44 227.603C284.898 228.061 284.898 228.799 284.44 229.256Z" fill="#E1E4E5"/>
<path d="M181.427 229.308L168.905 241.831C168.447 242.288 167.709 242.288 167.252 241.831C166.795 241.373 166.795 240.635 167.252 240.178L179.774 227.656C180.231 227.198 180.97 227.198 181.427 227.656C181.884 228.113 181.884 228.851 181.427 229.308Z" fill="#E1E4E5"/>
<path d="M173.745 229.256L170.133 232.868C169.675 233.326 168.937 233.326 168.48 232.868C168.023 232.411 168.023 231.673 168.48 231.216L172.092 227.603C172.549 227.146 173.288 227.146 173.745 227.603C174.202 228.061 174.196 228.799 173.745 229.256Z" fill="#E1E4E5"/>
<path fill-rule="evenodd" clip-rule="evenodd" d="M75.748 83.5083H78.485C79.1448 83.5083 79.6804 84.044 79.6804 84.7037V87.4408C79.6804 88.1005 79.1448 88.6362 78.485 88.6362H75.748C75.0883 88.6362 74.5591 88.1005 74.5526 87.4408V84.7037C74.5526 84.044 75.0817 83.5083 75.748 83.5083C75.748 83.5083 75.7415 83.5083 75.748 83.5083ZM85.2328 83.5083H87.9699C88.6296 83.5083 89.1653 84.044 89.1653 84.7037V87.4408C89.1653 88.1005 88.6296 88.6362 87.9699 88.6362H85.2328C84.5731 88.6362 84.044 88.1005 84.0374 87.4408V84.7037C84.0374 84.0505 84.5796 83.5083 85.2328 83.5083ZM94.7242 83.5083H97.4612C98.1144 83.5083 98.6566 84.044 98.6566 84.7037V87.4408C98.6566 88.1005 98.121 88.6362 97.4612 88.6362H94.7242C94.0645 88.6362 93.5288 88.1005 93.5288 87.4408V84.7037C93.5288 84.044 94.0645 83.5083 94.7242 83.5083ZM104.216 83.5083H106.953C107.606 83.5083 108.148 84.044 108.148 84.7037V87.4408C108.148 88.1005 107.612 88.6362 106.953 88.6362H104.216C103.556 88.6362 103.02 88.1005 103.014 87.4408V84.7037C103.02 84.044 103.556 83.5149 104.216 83.5083ZM113.7 83.5083H116.437C117.097 83.5083 117.639 84.044 117.639 84.7037V87.4408C117.639 88.1005 117.104 88.6362 116.444 88.6362H113.707C113.047 88.6362 112.518 88.1005 112.512 87.4408V84.7037C112.505 84.0505 113.041 83.5083 113.7 83.5083ZM85.5856 93.8554H88.3226C88.9758 93.8554 89.518 94.3911 89.518 95.0508V97.7944C89.518 98.4541 88.9824 98.9832 88.3226 98.9898H85.5856C84.9258 98.9898 84.3902 98.4541 84.3902 97.7944V95.0574C84.3837 94.3976 84.9193 93.8619 85.5791 93.8554C85.5791 93.8554 85.5791 93.8554 85.5856 93.8554ZM95.0704 93.8554H97.8074C98.4607 93.8554 99.0028 94.3911 99.0028 95.0508V97.7944C99.0028 98.4541 98.4672 98.9832 97.8074 98.9898H95.0704C94.4107 98.9898 93.8816 98.4541 93.875 97.7944V95.0574C93.8685 94.3976 94.4041 93.8619 95.0574 93.8554C95.0639 93.8554 95.0639 93.8554 95.0704 93.8554ZM104.555 93.8554H107.292C107.952 93.8554 108.494 94.3911 108.494 95.0508V97.7944C108.494 98.4541 107.952 98.9898 107.292 98.9898H104.555C103.895 98.9898 103.366 98.4541 103.36 97.7944V95.0574C103.36 94.3911 103.902 93.8554 104.555 93.8554ZM94.7242 72.397H97.4612C98.1144 72.397 98.6566 72.9326 98.6566 73.5924V76.3294C98.6566 76.9891 98.121 77.5248 97.4612 77.5248H94.7242C94.0645 77.5248 93.5288 76.9891 93.5288 76.3294V73.5924C93.5288 72.9326 94.0645 72.397 94.7242 72.397ZM104.216 72.397H106.953C107.606 72.397 108.148 72.9326 108.148 73.5924V76.3294C108.148 76.9891 107.612 77.5248 106.953 77.5248H104.216C103.556 77.5248 103.02 76.9891 103.014 76.3294V73.5924C103.02 72.9326 103.556 72.4035 104.216 72.397ZM209.039 115.138H211.776C212.435 115.138 212.971 115.673 212.971 116.333V119.07C212.971 119.73 212.435 120.265 211.776 120.265H209.039C208.379 120.265 207.843 119.73 207.843 119.07V116.333C207.843 115.673 208.379 115.138 209.039 115.138ZM218.53 115.138H221.267C221.92 115.138 222.462 115.673 222.462 116.333V119.07C222.462 119.73 221.927 120.265 221.267 120.265H218.53C217.87 120.265 217.341 119.73 217.335 119.07V116.333C217.335 115.68 217.87 115.138 218.53 115.138ZM228.021 115.138H230.758C231.412 115.138 231.954 115.673 231.954 116.333V119.07C231.954 119.73 231.418 120.265 230.758 120.265H228.021C227.362 120.265 226.832 119.73 226.826 119.07V116.333C226.826 115.673 227.355 115.138 228.021 115.138C228.015 115.138 228.015 115.138 228.021 115.138ZM237.506 115.138H240.243C240.903 115.138 241.439 115.673 241.439 116.333V119.07C241.439 119.73 240.903 120.265 240.243 120.265H237.506C236.846 120.265 236.311 119.73 236.304 119.07V116.333C236.311 115.673 236.846 115.144 237.506 115.138ZM246.991 115.138H249.728C250.388 115.138 250.93 115.673 250.93 116.333V119.07C250.93 119.73 250.394 120.265 249.735 120.265H246.998C246.338 120.265 245.809 119.73 245.802 119.07V116.333C245.796 115.68 246.338 115.138 246.991 115.138ZM218.876 125.485H221.613C222.266 125.485 222.809 126.02 222.809 126.68V129.424C222.809 130.083 222.273 130.612 221.613 130.619H218.876C218.216 130.619 217.681 130.083 217.681 129.424V126.687C217.674 126.027 218.21 125.491 218.863 125.485C218.87 125.485 218.87 125.485 218.876 125.485ZM228.361 125.485H231.098C231.758 125.485 232.293 126.02 232.293 126.68V129.424C232.293 130.083 231.758 130.612 231.098 130.619H228.361C227.701 130.619 227.172 130.083 227.166 129.424V126.687C227.159 126.027 227.695 125.491 228.348 125.485C228.355 125.485 228.361 125.485 228.361 125.485ZM237.846 125.485H240.583C241.243 125.485 241.785 126.02 241.785 126.68V129.424C241.785 130.083 241.243 130.619 240.583 130.619H237.846C237.186 130.619 236.657 130.083 236.65 129.424V126.687C236.657 126.02 237.193 125.485 237.846 125.485ZM228.021 104.026H230.758C231.412 104.026 231.954 104.562 231.954 105.222V107.959C231.954 108.618 231.418 109.154 230.758 109.154H228.021C227.362 109.154 226.832 108.618 226.826 107.959V105.222C226.826 104.562 227.355 104.026 228.021 104.026C228.015 104.026 228.015 104.026 228.021 104.026ZM237.506 104.026H240.243C240.903 104.026 241.439 104.562 241.439 105.222V107.959C241.439 108.618 240.903 109.154 240.243 109.154H237.506C236.846 109.154 236.311 108.618 236.304 107.959V105.222C236.311 104.562 236.846 104.033 237.506 104.026Z" fill="#E1E4E5"/>
<path fill-rule="evenodd" clip-rule="evenodd" d="M20.335 130.384C20.335 126.641 23.3725 123.603 27.1154 123.603H82.8421C86.5851 123.603 89.6226 126.641 89.6226 130.384C89.6226 134.127 86.5851 137.164 82.8421 137.164H27.1089C23.3659 137.158 20.335 134.127 20.335 130.384ZM463.137 164.273C463.137 160.53 460.099 157.493 456.356 157.493H400.63C396.887 157.493 393.849 160.53 393.849 164.273C393.849 168.016 396.887 171.054 400.63 171.054H456.356C460.106 171.047 463.137 168.016 463.137 164.273ZM20.335 155.232C20.335 151.489 23.3725 148.452 27.1154 148.452H57.2357C60.9786 148.452 64.0161 151.483 64.0161 155.232C64.0161 158.975 60.9786 162.013 57.2357 162.013H27.1089C23.3659 162.013 20.335 158.975 20.335 155.232ZM463.137 189.122C463.137 185.379 460.099 182.341 456.356 182.341H426.236C422.493 182.341 419.456 185.372 419.456 189.122C419.456 192.865 422.493 195.902 426.236 195.902H456.356C460.106 195.902 463.137 192.865 463.137 189.122ZM20.335 177.828C20.335 174.085 23.3725 171.047 27.1154 171.047H57.2357C60.9786 171.047 64.0161 174.085 64.0161 177.828C64.0161 181.57 60.9786 184.608 57.2357 184.608H27.1089C23.3659 184.601 20.335 181.57 20.335 177.828ZM463.137 211.717C463.137 207.974 460.099 204.936 456.356 204.936H426.236C422.493 204.936 419.456 207.967 419.456 211.717C419.456 215.466 422.493 218.497 426.236 218.497H456.356C460.106 218.491 463.137 215.46 463.137 211.717Z" fill="white" stroke="#E1E4E5" stroke-width="2.6129" stroke-linecap="round" stroke-linejoin="round"/>
<path d="M440.202 113.328C429.75 115.804 418.691 106.939 418.691 106.939C418.691 106.939 424.59 94.0644 435.048 91.5952C445.5 89.1195 456.552 97.9772 456.552 97.9772C456.552 97.9772 450.654 110.852 440.202 113.328Z" fill="url(#paint2_linear_90_2023)"/>
<path d="M152.071 31.5181C163.078 39.1021 179.892 33.7979 179.892 33.7979C179.892 33.7979 178.853 16.2065 167.84 8.63565C156.833 1.05824 140.025 6.34937 140.025 6.34937C140.025 6.34937 141.064 23.9407 152.071 31.5181Z" fill="url(#paint3_linear_90_2023)"/>
<path d="M140.816 300.621C151.405 308.081 167.755 303.116 167.755 303.116C167.755 303.116 166.925 286.06 156.33 278.607C145.741 271.147 129.397 276.105 129.397 276.105C129.397 276.105 130.227 293.161 140.816 300.621Z" fill="url(#paint4_linear_90_2023)"/>
<path d="M406.489 274.609C411.385 274.609 415.353 270.813 415.353 266.13C415.353 261.448 411.385 257.652 406.489 257.652C401.593 257.652 397.625 261.448 397.625 266.13C397.625 270.813 401.593 274.609 406.489 274.609Z" fill="#46B20F"/>
<path d="M237.121 51.4154C241.811 51.4154 245.613 47.7362 245.613 43.1978C245.613 38.6594 241.811 34.9802 237.121 34.9802C232.431 34.9802 228.629 38.6594 228.629 43.1978C228.629 47.7362 232.431 51.4154 237.121 51.4154Z" fill="#46B20F"/>
<path d="M4.23943 165.971C6.58081 165.971 8.47886 164.073 8.47886 161.732C8.47886 159.391 6.58081 157.493 4.23943 157.493C1.89806 157.493 0 159.391 0 161.732C0 164.073 1.89806 165.971 4.23943 165.971Z" fill="#46B20F"/>
<path d="M412.492 62.984C416.962 62.984 420.586 59.3605 420.586 54.8906C420.586 50.4207 416.962 46.7971 412.492 46.7971C408.022 46.7971 404.399 50.4207 404.399 54.8906C404.399 59.3605 408.022 62.984 412.492 62.984Z" fill="#46B20F"/>
<path d="M293.697 302.084C298.686 302.084 302.731 298.206 302.731 293.422C302.731 288.639 298.686 284.76 293.697 284.76C288.707 284.76 284.663 288.639 284.663 293.422C284.663 298.206 288.707 302.084 293.697 302.084Z" fill="#E1E4E5"/>
<path d="M59.4892 226.023C61.9857 226.023 64.0095 223.999 64.0095 221.502C64.0095 219.006 61.9857 216.982 59.4892 216.982C56.9927 216.982 54.9689 219.006 54.9689 221.502C54.9689 223.999 56.9927 226.023 59.4892 226.023Z" fill="#E1E4E5"/>
<path d="M210.548 312C212.038 312 213.245 310.792 213.245 309.302C213.245 307.812 212.038 306.604 210.548 306.604C209.058 306.604 207.85 307.812 207.85 309.302C207.85 310.792 209.058 312 210.548 312Z" fill="#E1E4E5"/>
<path d="M369.843 38.6906C371.972 38.6906 373.697 36.9651 373.697 34.8366C373.697 32.7081 371.972 30.9825 369.843 30.9825C367.715 30.9825 365.989 32.7081 365.989 34.8366C365.989 36.9651 367.715 38.6906 369.843 38.6906Z" fill="#E1E4E5"/>
<path d="M12.8946 253.229C14.9762 253.229 16.6637 251.542 16.6637 249.46C16.6637 247.379 14.9762 245.691 12.8946 245.691C10.813 245.691 9.12549 247.379 9.12549 249.46C9.12549 251.542 10.813 253.229 12.8946 253.229Z" fill="#E1E4E5"/>
<path d="M114.203 43.2566C116.97 43.2566 119.214 41.0134 119.214 38.2463C119.214 35.4792 116.97 33.2361 114.203 33.2361C111.436 33.2361 109.193 35.4792 109.193 38.2463C109.193 41.0134 111.436 43.2566 114.203 43.2566Z" fill="#E1E4E5"/>
<path d="M415.784 150.105C417.913 150.105 419.638 148.724 419.638 147.021C419.638 145.319 417.913 143.938 415.784 143.938C413.656 143.938 411.93 145.319 411.93 147.021C411.93 148.724 413.656 150.105 415.784 150.105Z" fill="#E1E4E5"/>
<path d="M286.57 60.9132C290.899 60.9132 294.409 57.4037 294.409 53.0745C294.409 48.7453 290.899 45.2358 286.57 45.2358C282.241 45.2358 278.731 48.7453 278.731 53.0745C278.731 57.4037 282.241 60.9132 286.57 60.9132Z" fill="#E1E4E5"/>
<path d="M452.705 123.603H452.803C453.397 132.063 459.694 132.193 459.694 132.193C459.694 132.193 452.757 132.33 452.757 142.109C452.757 132.33 445.82 132.193 445.82 132.193C445.82 132.193 452.104 132.069 452.705 123.603ZM32.1975 72.397H32.3738C33.3994 87.2056 44.2429 87.4342 44.2429 87.4342C44.2429 87.4342 32.2889 87.6694 32.2889 104.784C32.2889 87.6759 20.3414 87.4342 20.3414 87.4342C20.3414 87.4342 31.1654 87.2056 32.1975 72.397Z" fill="#E1E4E5"/>
<path d="M127.496 162.745C122.427 124.048 149.131 78.0213 206.047 85.0042C254.32 90.9225 264.785 83.2928 285.564 72.4166C299.288 65.2376 320.76 52.5324 338.175 88.8583C360.972 136.4 307.506 210.94 259.762 233.796C214.101 255.666 136.687 232.973 127.496 162.745Z" fill="#46B20F"/>
<path d="M189.579 161.432L216.348 188.469L274.766 129.45" stroke="white" stroke-width="25.5548" stroke-linecap="round" stroke-linejoin="round"/>
</g>
<defs>
<linearGradient id="paint0_linear_90_2023" x1="293.904" y1="447.913" x2="141.373" y2="-240.256" gradientUnits="userSpaceOnUse">
<stop stop-color="white"/>
<stop offset="1" stop-color="#EEEEEE"/>
</linearGradient>
<linearGradient id="paint1_linear_90_2023" x1="317.311" y1="182.514" x2="245.971" y2="-138.062" gradientUnits="userSpaceOnUse">
<stop stop-color="white"/>
<stop offset="1" stop-color="#EEEEEE"/>
</linearGradient>
<linearGradient id="paint2_linear_90_2023" x1="400.969" y1="119.773" x2="492.483" y2="76.5396" gradientUnits="userSpaceOnUse">
<stop stop-color="white"/>
<stop offset="1" stop-color="#EEEEEE"/>
</linearGradient>
<linearGradient id="paint3_linear_90_2023" x1="194.654" y1="56.6686" x2="108.019" y2="-34.685" gradientUnits="userSpaceOnUse">
<stop stop-color="white"/>
<stop offset="1" stop-color="#EEEEEE"/>
</linearGradient>
<linearGradient id="paint4_linear_90_2023" x1="181.829" y1="325.431" x2="98.8007" y2="235.998" gradientUnits="userSpaceOnUse">
<stop stop-color="white"/>
<stop offset="1" stop-color="#EEEEEE"/>
</linearGradient>
<clipPath id="clip0_90_2023">
<rect width="464.443" height="312" fill="white"/>
</clipPath>
</defs>
</svg>
